<?xml version="1.0" encoding="UTF-8"?>
<svg version="1.1" xmlns="http://www.w3.org/2000/svg" width="1014" height="1012">
<path d="M0 0 C334.62 0 669.24 0 1014 0 C1014 333.96 1014 667.92 1014 1012 C679.38 1012 344.76 1012 0 1012 C0 678.04 0 344.08 0 0 Z " fill="#FDFDFD" transform="translate(0,0)"/>
<path d="M0 0 C0.87895935 -0.0061734 1.7579187 -0.0123468 2.66351318 -0.01870728 C18.07760783 -0.08826319 31.62753184 1.75416713 46.0625 7.4375 C47.59775592 7.99032982 49.13434444 8.53946579 50.671875 9.0859375 C76.39827663 18.35124474 97.3136638 32.22066408 118.66015625 49 C122.7493276 52.20761438 126.89341695 55.33480595 131.0625 58.4375 C139.13171405 64.45060655 147.06302011 70.6349496 154.99511719 76.82714844 C159.99731924 80.72352595 165.03272189 84.57684017 170.0625 88.4375 C172.14592246 90.04155092 174.2292538 91.64572017 176.3125 93.25 C179.87870419 95.99540255 183.44945095 98.73468669 187.02734375 101.46484375 C194.42160116 107.10762482 201.79329672 112.77609872 209.125 118.5 C215.40055163 123.39633173 221.72620183 128.21690193 228.10498047 132.9777832 C232.84410276 136.51664714 237.55491944 140.09042706 242.25 143.6875 C242.94416016 144.21923828 243.63832031 144.75097656 244.35351562 145.29882812 C245.81155044 146.41581762 247.26955745 147.5328434 248.72753906 148.64990234 C259.95736696 157.24722562 271.20497439 165.81984682 282.53417969 174.28588867 C286.50912443 177.26000273 290.45073441 180.27181119 294.375 183.3125 C299.7705921 187.48365598 305.24973689 191.53064499 310.75 195.5625 C336.10785117 214.20490296 336.10785117 214.20490296 340.0625 226.4375 C340.6041262 230.23848602 340.62041965 233.97807489 340.59594727 237.81298828 C340.60456284 238.91496552 340.61317841 240.01694275 340.62205505 241.15231323 C340.64463716 244.77105632 340.63799153 248.38902037 340.62890625 252.0078125 C340.63414413 254.53409046 340.64042121 257.06036647 340.64768982 259.5866394 C340.65807887 264.87049611 340.65388387 270.15415229 340.63891602 275.43798828 C340.62197358 281.53277263 340.63787021 287.62684182 340.6701389 293.7215482 C340.7001055 299.60609907 340.70201016 305.49042842 340.6926403 311.37505722 C340.69182093 313.87009487 340.6986816 316.36514745 340.71341133 318.86014175 C340.73084953 322.34755787 340.71631968 325.83344589 340.69360352 329.32080078 C340.70529572 330.34747864 340.71698792 331.37415649 340.72903442 332.4319458 C340.64088254 339.09058754 339.51423667 342.43473344 335.0625 347.4375 C329.98698259 351.65045184 324.63717019 352.84282699 318.125 352.75 C311.0932174 351.90407127 306.99360764 349.36831901 301.69873047 344.81689453 C299.09451731 342.62145969 296.38840509 340.56010412 293.69311523 338.47827148 C291.35377392 336.67110261 289.02427098 334.85177218 286.6953125 333.03125 C281.76309772 329.19074261 276.76733129 325.43940534 271.7578125 321.70068359 C265.47628486 317.00995283 259.26595949 312.23073206 253.0625 307.4375 C250.89671099 305.76969156 248.72964918 304.1035405 246.5625 302.4375 C243.34517909 299.96411838 240.12923099 297.48906109 236.91796875 295.0078125 C231.10562089 290.51919335 225.26024464 286.0801728 219.375 281.6875 C212.80554705 276.78064719 206.31905398 271.77437655 199.85595703 266.72851562 C194.67573551 262.68595944 189.47313518 258.67444601 184.25 254.6875 C183.54166016 254.14673828 182.83332031 253.60597656 182.10351562 253.04882812 C180.72824665 251.99911211 179.35292296 250.94946778 177.97753906 249.89990234 C169.97331002 243.78754488 162.00952526 237.62394078 154.0625 231.4375 C142.36269359 222.33077452 130.59605511 213.31503918 118.79956055 204.33398438 C111.87013751 199.05704398 104.96011775 193.75592632 98.0625 188.4375 C95.89627842 186.77025452 93.72940597 185.10385584 91.5625 183.4375 C88.40502541 181.00939454 85.24809745 178.58060541 82.09375 176.1484375 C72.63245853 168.85739072 63.13600259 161.61280363 53.62353516 154.38867188 C51.25660548 152.58538284 48.89856108 150.77118199 46.54296875 148.953125 C30.22932909 136.42406717 16.88243164 130.6316896 -3.9375 132.4375 C-12.65433745 134.1301882 -20.34046637 138.68343367 -25.72265625 145.796875 C-32.38079159 156.33210635 -33.37565437 165.91854109 -33.32226562 178.15917969 C-33.3263765 179.73858531 -33.33184042 181.31798791 -33.33854675 182.89738464 C-33.35022307 186.28256776 -33.35277375 189.66758805 -33.34819031 193.05278778 C-33.34135607 198.40655271 -33.3572887 203.76010485 -33.37658691 209.11383057 C-33.41757246 221.43815211 -33.42899318 233.76246722 -33.44011688 246.0868454 C-33.45062656 257.39754731 -33.46738464 268.70814637 -33.50821257 280.01878476 C-33.52656597 285.34045243 -33.53046274 290.66187499 -33.52327728 295.98356676 C-33.52175614 299.29108646 -33.53253395 302.59848325 -33.54665565 305.90596962 C-33.55065966 307.43902689 -33.54953097 308.97210748 -33.54288292 310.50515556 C-33.53450174 312.5986067 -33.54448979 314.69120702 -33.55895996 316.78460693 C-33.55967247 317.95557796 -33.56038498 319.126549 -33.56111908 320.333004 C-34.0970891 324.75383589 -35.83185299 327.33185299 -38.9375 330.4375 C-43.22186149 331.0397407 -45.97150014 330.73841251 -49.48828125 328.3046875 C-50.75551294 327.3242778 -52.00878537 326.32564637 -53.25 325.3125 C-53.93151123 324.77915039 -54.61302246 324.24580078 -55.31518555 323.69628906 C-56.77427834 322.55230474 -58.22766723 321.40101452 -59.67578125 320.24316406 C-62.7379707 317.79843682 -65.83233706 315.39614504 -68.92675781 312.99243164 C-70.47716435 311.78791761 -72.02599191 310.58136845 -73.57324219 309.37280273 C-78.3323917 305.65916149 -83.15369641 302.05860715 -88.05859375 298.5390625 C-95.498847 293.10777858 -102.75683227 287.42446549 -110.05664062 281.80664062 C-112.14081795 280.20297654 -114.22620936 278.60091372 -116.3125 277 C-117.34612671 276.20662231 -117.34612671 276.20662231 -118.40063477 275.3972168 C-124.64378245 270.62439909 -130.97355419 265.97179378 -137.34326172 261.36938477 C-141.04377617 258.67274607 -144.69881966 255.91927179 -148.24609375 253.0234375 C-148.86154053 252.52634277 -149.4769873 252.02924805 -150.11108398 251.51708984 C-155.79792995 245.04194562 -156.52444835 238.60339541 -156.47094727 230.22998047 C-156.47956284 229.13273651 -156.48817841 228.03549255 -156.49705505 226.90499878 C-156.51969612 223.2879859 -156.5129718 219.67175012 -156.50390625 216.0546875 C-156.50914756 213.51807427 -156.5154259 210.98146298 -156.52268982 208.44485474 C-156.53309453 203.12377766 -156.52887202 197.80297812 -156.51391602 192.48193359 C-156.49711128 186.39030577 -156.5126722 180.29940071 -156.5451389 174.20785224 C-156.57543047 168.2939651 -156.57693881 162.38034977 -156.5676403 156.46640396 C-156.56682942 153.97818188 -156.57352451 151.48994389 -156.58841133 149.0017662 C-156.75368617 116.34111855 -148.69907618 85.26656472 -127.9375 59.4375 C-127.53837402 58.93299316 -127.13924805 58.42848633 -126.72802734 57.90869141 C-108.57278292 35.08119241 -85.24909602 19.45209948 -57.9375 9.4375 C-56.30941406 8.82068359 -56.30941406 8.82068359 -54.6484375 8.19140625 C-36.59858944 1.74503194 -19.06555435 0.05720985 0 0 Z " fill="#FD521A" transform="translate(275.9375,217.5625)"/>
<path d="M0 0 C1.34569295 0.00052016 2.69138665 -0.00000356 4.03707886 -0.00151062 C6.82887411 -0.00142178 9.62037523 0.00883739 12.41210938 0.02709961 C15.99217291 0.05000594 19.57181663 0.05028206 23.15193367 0.04358196 C25.91769155 0.04024856 28.68335321 0.04685645 31.44909286 0.0567112 C33.41121377 0.06242347 35.37335101 0.06112839 37.33547974 0.05973816 C38.51786224 0.06927017 39.70024475 0.07880219 40.91845703 0.08862305 C42.48299118 0.09553413 42.48299118 0.09553413 44.07913208 0.10258484 C46.5546875 0.36328125 46.5546875 0.36328125 48.5546875 2.36328125 C48.94921875 4.6796875 48.94921875 4.6796875 48.5546875 7.36328125 C46.75390625 9.765625 46.75390625 9.765625 44.2421875 12.30078125 C40.28733057 16.41493693 36.65576398 20.64988302 33.1796875 25.17578125 C29.35452202 30.13258379 25.40572712 34.94455218 21.3046875 39.67578125 C17.52380115 44.03802136 13.87881791 48.44986434 10.37890625 53.04296875 C8.09735401 55.94498594 5.70360453 58.74601519 3.3046875 61.55078125 C-0.55852288 66.07189801 -4.2969357 70.66720225 -7.9453125 75.36328125 C-11.9467026 80.51290251 -16.08018536 85.51868592 -20.32250977 90.47094727 C-23.61643806 94.33498977 -26.77134142 98.28885578 -29.8828125 102.30078125 C-34.08308543 107.71313294 -38.46340866 112.93074219 -42.95581055 118.10205078 C-46.98828504 122.76834 -50.79754408 127.58281693 -54.57543945 132.45605469 C-57.75109198 136.53317904 -61.08743135 140.411485 -64.5625 144.23828125 C-67.25601472 147.27826466 -69.74695069 150.46724978 -72.265625 153.65234375 C-74.66986467 156.64256298 -77.1432861 159.56925047 -79.6328125 162.48828125 C-84.37997779 168.05948592 -89.00405663 173.72275727 -93.60375977 179.41601562 C-97.03699167 183.65625815 -100.52484938 187.84161152 -104.0703125 191.98828125 C-108.31287122 196.9554601 -112.37422947 202.0428767 -116.38671875 207.19702148 C-120.17963164 212.05804574 -124.09797174 216.7968957 -128.0625 221.51953125 C-131.0387098 225.07146688 -133.96829392 228.66005458 -136.8984375 232.25 C-140.06901216 236.13073183 -143.25822128 239.9961136 -146.4453125 243.86328125 C-151.79176579 250.35262297 -157.13116061 256.84743672 -162.4453125 263.36328125 C-162.92822754 263.95431641 -163.41114258 264.54535156 -163.90869141 265.15429688 C-169.6279814 272.15607299 -175.32272973 279.17165217 -180.8828125 286.30078125 C-190.00047677 297.97038218 -199.30239893 309.5640615 -209.4453125 320.36328125 C-210.06148437 321.03230469 -210.67765625 321.70132812 -211.3125 322.390625 C-230.2731799 342.25606764 -255.66734708 353.87101973 -282.4453125 358.36328125 C-283.58613281 358.55535156 -284.72695313 358.74742187 -285.90234375 358.9453125 C-317.28906003 362.64804529 -351.48334937 353.72139829 -376.5078125 334.23828125 C-378.49836115 332.62724377 -380.47849006 331.00320051 -382.4453125 329.36328125 C-384.13013326 328.00578259 -385.81749556 326.65143007 -387.5078125 325.30078125 C-388.30960938 324.65496094 -389.11140625 324.00914062 -389.9375 323.34375 C-392.6330013 321.21505972 -395.37542083 319.16110413 -398.1328125 317.11328125 C-403.45353357 313.15002619 -408.63760223 309.03835274 -413.80517578 304.87817383 C-417.83678402 301.63714761 -421.89933512 298.4437413 -426.0078125 295.30078125 C-433.46693396 289.59459898 -440.84018604 283.78122152 -448.21582031 277.96777344 C-449.97934883 276.57817918 -451.74339357 275.18924473 -453.5078125 273.80078125 C-454.08563477 273.34598389 -454.66345703 272.89118652 -455.25878906 272.42260742 C-459.19407975 269.33098744 -463.15732044 266.27794638 -467.1328125 263.23828125 C-472.05085896 259.47586147 -476.8534152 255.58978165 -481.62890625 251.6484375 C-484.71529463 249.14422501 -487.85187843 246.71617311 -491.0078125 244.30078125 C-491.55445557 243.87925781 -492.10109863 243.45773437 -492.66430664 243.0234375 C-495.18117422 241.08431655 -497.70991511 239.17120745 -500.28125 237.3046875 C-508.55059538 231.13371955 -513.73988521 223.4002727 -516.4453125 213.36328125 C-516.87066275 209.41770888 -516.86583533 205.50031365 -516.84936523 201.53466797 C-516.85622849 200.37270905 -516.86309174 199.21075012 -516.87016296 198.01358032 C-516.88839823 194.18991731 -516.88459897 190.36666572 -516.87890625 186.54296875 C-516.88231482 184.55219205 -516.88573161 182.56141515 -516.89025933 180.57064068 C-516.90426956 174.32032343 -516.90277086 168.07014298 -516.89135742 161.81982422 C-516.87986217 155.38262186 -516.89398301 148.94583546 -516.9207539 142.50868785 C-516.94292978 136.96789689 -516.94954458 131.42723634 -516.94367748 125.88640416 C-516.94031325 122.58303566 -516.94440442 119.27999266 -516.95992851 115.97665024 C-516.97479679 112.29515272 -516.96419171 108.61457412 -516.94702148 104.93310547 C-516.95668945 103.84515686 -516.96635742 102.75720825 -516.97631836 101.6362915 C-516.916863 95.55187459 -516.49706599 92.00220548 -512.4453125 87.36328125 C-509.46779526 84.52552503 -507.15962934 83.79165882 -503.0703125 83.55078125 C-494.41342687 83.80231304 -488.80669414 89.1042509 -482.4453125 94.36328125 C-481.15195698 95.40998618 -479.85766911 96.45554 -478.5625 97.5 C-476.55445944 99.12499251 -474.55073748 100.75440074 -472.55664062 102.39648438 C-467.86700455 106.2540153 -463.0762812 109.93920276 -458.1953125 113.55078125 C-452.50145135 117.76767109 -447.0292763 122.16487281 -441.62109375 126.74609375 C-437.2093589 130.43127323 -432.59653415 133.85725247 -428.01513672 137.3269043 C-422.97244217 141.15977922 -418.0300293 145.09656224 -413.1328125 149.11328125 C-407.68459958 153.58056517 -402.14936723 157.87882903 -396.484375 162.0703125 C-393.01927441 164.68472644 -389.63629968 167.38852475 -386.2578125 170.11328125 C-380.90497493 174.42999685 -375.48686572 178.64555129 -370.0078125 182.80078125 C-364.2949789 187.13582146 -358.67915306 191.56720942 -353.1328125 196.11328125 C-347.75462077 200.52016727 -342.3039215 204.78045 -336.7109375 208.9140625 C-333.33129054 211.42732601 -330.01973726 214.02556662 -326.70385742 216.62207031 C-309.705644 230.18581285 -309.705644 230.18581285 -289.4453125 237.36328125 C-289.4453125 238.02328125 -289.4453125 238.68328125 -289.4453125 239.36328125 C-267.64526217 238.70198265 -252.52562766 235.1263823 -236.4453125 219.36328125 C-235.95498535 218.88665039 -235.4646582 218.41001953 -234.95947266 217.91894531 C-229.42107201 212.52469244 -224.03520693 207.04632919 -219.01953125 201.15625 C-216.86072427 198.69745991 -214.52865145 196.43620343 -212.1953125 194.14453125 C-210.36288763 192.27938451 -208.65178115 190.34400379 -206.9453125 188.36328125 C-204.19195127 185.16741554 -201.29870651 182.19113953 -198.2890625 179.23828125 C-196.51085079 177.42993036 -194.8484228 175.56725597 -193.1953125 173.64453125 C-189.54784156 169.45013225 -185.76902504 165.39677353 -181.9453125 161.36328125 C-180.53372058 159.86861573 -179.12226555 158.37382093 -177.7109375 156.87890625 C-177.00130859 156.12802734 -176.29167969 155.37714844 -175.56054688 154.60351562 C-167.29971099 145.85450476 -159.07753795 137.06994937 -150.92602539 128.21899414 C-138.57238567 114.81135283 -126.06707181 101.54271761 -113.5859375 88.25390625 C-107.3863972 81.65073362 -101.20526321 75.03260979 -95.07348633 68.36645508 C-90.89695525 63.8342972 -86.67392954 59.34682022 -82.4453125 54.86328125 C-77.55169143 49.67212616 -72.66501541 44.4751744 -67.8203125 39.23828125 C-67.32821289 38.70638184 -66.83611328 38.17448242 -66.32910156 37.62646484 C-63.88134422 34.96722534 -61.49923964 32.27270656 -59.1953125 29.48828125 C-56.60222766 26.41276202 -53.70268133 23.83920265 -50.6328125 21.24609375 C-49.09853954 19.92552309 -47.60094378 18.56170148 -46.1328125 17.16796875 C-32.28649775 4.07610063 -18.83488936 -0.13700798 0 0 Z " fill="#FD521A" transform="translate(840.4453125,404.63671875)"/>
<path d="M0 0 C3.95079122 1.31693041 5.46244439 3.85383566 7.875 7.0625 C8.86063433 8.34608587 9.84767008 9.62859656 10.8359375 10.91015625 C11.3525293 11.58191895 11.86912109 12.25368164 12.40136719 12.94580078 C15.04498776 16.34278054 17.7736754 19.66931174 20.5 23 C25.01014119 28.52469102 29.45274285 34.09518141 33.84033203 39.7175293 C37.29374548 44.13105391 40.82487528 48.47657065 44.375 52.8125 C48.90877944 58.35281349 53.30576422 63.97856358 57.625 69.6875 C61.92012813 75.36091551 66.3427342 80.87000512 70.98144531 86.26513672 C74.69829271 90.60056025 78.23293035 95.05939616 81.73925781 99.56591797 C85.22197558 104.03405588 88.78486437 108.43039117 92.375 112.8125 C96.90895695 118.35265595 101.3058709 123.97849813 105.625 129.6875 C109.51614923 134.82898114 113.48659869 139.8580381 117.6875 144.75 C121.40691515 149.10370766 125.10586713 153.46926096 128.6875 157.9375 C129.51636719 158.95714844 130.34523438 159.97679687 131.19921875 161.02734375 C133.25288763 164.41745658 133.71938551 166.11099109 133 170 C130.18813985 172.65957902 128.25230136 173.375482 124.42129517 173.38095093 C123.50732468 173.3894104 122.59335419 173.39786987 121.65168762 173.40658569 C120.6562645 173.400513 119.66084137 173.39444031 118.63525391 173.38818359 C117.0541256 173.39606903 117.0541256 173.39606903 115.4410553 173.40411377 C111.95274076 173.41732906 108.46488178 173.40856871 104.9765625 173.3984375 C102.55284538 173.40045809 100.12912885 173.4033694 97.70541382 173.40713501 C92.62288633 173.4115607 87.54051693 173.40512037 82.45800781 173.39111328 C75.94555861 173.37403971 69.43348081 173.38384976 62.9210453 173.40183067 C57.91445118 173.41267732 52.9079449 173.40921775 47.90134811 173.4014473 C45.50038992 173.39944679 43.09942374 173.4018993 40.69847488 173.40888596 C37.3399472 173.41651261 33.9820183 173.40487759 30.62353516 173.38818359 C29.63216049 173.39425629 28.64078583 173.40032898 27.61936951 173.40658569 C22.32996625 173.35792859 18.55265181 173.00345874 14 170 C11.68359375 167.42578125 11.68359375 167.42578125 9.4375 164.3125 C8.57397187 163.14018704 7.70796409 161.96969767 6.83984375 160.80078125 C6.38335449 160.18283691 5.92686523 159.56489258 5.45654297 158.92822266 C2.89893115 155.54236645 0.19360925 152.27790797 -2.5 149 C-6.42734911 144.19927238 -10.30186435 139.37004402 -14.0625 134.4375 C-18.12404883 129.11411075 -22.27719064 123.87327659 -26.47119141 118.65380859 C-29.823205 114.47958279 -33.14110072 110.28073803 -36.4375 106.0625 C-41.04207411 100.17134132 -45.7444073 94.36376578 -50.49780273 88.59204102 C-52.0146449 86.74028999 -53.51162024 84.8746806 -55 83 C-55.5043457 82.37722168 -56.00869141 81.75444336 -56.52832031 81.11279297 C-60.05461451 76.54513622 -60.05461451 76.54513622 -59.80175781 74.02124023 C-58.89725994 71.74099119 -57.81349655 70.2518237 -56.2265625 68.3828125 C-55.65429932 67.70017334 -55.08203613 67.01753418 -54.49243164 66.31420898 C-53.56805298 65.23055054 -53.56805298 65.23055054 -52.625 64.125 C-51.34368762 62.59880074 -50.06375776 61.07143981 -48.78515625 59.54296875 C-47.82633545 58.39900635 -47.82633545 58.39900635 -46.84814453 57.23193359 C-44.18675876 54.0178796 -41.61964925 50.73466175 -39.0625 47.4375 C-35.73750623 43.16582314 -32.33494086 39.00466134 -28.7265625 34.96875 C-25.87847849 31.72116099 -23.18502289 28.34774148 -20.4609375 24.99609375 C-17.80107188 21.75781291 -15.09301635 18.56439977 -12.375 15.375 C-8.10445434 10.35842646 -3.97766554 5.25377667 0 0 Z " fill="#FD531A" transform="translate(769,575)"/>
<path d="M0 0 C1.65 0 3.3 0 5 0 C6.94531997 6.65144727 8.48928435 13.26829844 9.68432617 20.09350586 C13.72054032 43.06177671 19.85500439 72.76384773 39.484375 87.91796875 C61.4188561 100.20884178 85.52653879 105.90016285 110.109375 110.359375 C112.90792008 110.9795931 115.37785546 111.85402572 118 113 C117.67 114.32 117.34 115.64 117 117 C116.35264893 117.12528076 115.70529785 117.25056152 115.03833008 117.37963867 C66.54422997 124.96743707 66.54422997 124.96743707 28.25 152.8125 C17.05082641 169.86812216 9.87714764 193.58199256 8.28125 213.9296875 C7.71782826 218.07709754 6.31505196 222.03830258 5 226 C3.35 225.67 1.7 225.34 0 225 C-0.46341402 223.0845554 -0.92036997 221.16754846 -1.375 219.25 C-1.63023437 218.18265625 -1.88546875 217.1153125 -2.1484375 216.015625 C-2.87192845 212.80676958 -3.38686705 209.58610915 -3.890625 206.3359375 C-4.94586168 199.87752618 -6.57865035 193.66222379 -8.375 187.375 C-8.66632813 186.32054687 -8.95765625 185.26609375 -9.2578125 184.1796875 C-11.11474021 177.59899631 -13.30635715 171.2841944 -16 165 C-16.39703125 164.071875 -16.7940625 163.14375 -17.203125 162.1875 C-23.52115424 148.98564786 -32.24228522 141.11528689 -45.1875 134.875 C-45.85773193 134.54999512 -46.52796387 134.22499023 -47.21850586 133.89013672 C-58.27325539 128.7719321 -70.17266771 126.12278718 -82 123.4375 C-83.26328125 123.14681641 -84.5265625 122.85613281 -85.828125 122.55664062 C-88.3263612 121.98220051 -90.82504843 121.40971786 -93.32421875 120.83935547 C-98.88511301 119.56953915 -104.44248933 118.28453003 -110 117 C-110.33 115.68 -110.66 114.36 -111 113 C-107.58741294 111.06066069 -104.25155783 110.27013864 -100.42578125 109.44921875 C-99.11300757 109.16265158 -97.80026457 108.87594379 -96.48754883 108.58911133 C-95.46390732 108.36839462 -95.46390732 108.36839462 -94.41958618 108.14321899 C-82.45972295 105.55654889 -70.65873555 102.7360948 -59 99 C-57.948125 98.69835937 -56.89625 98.39671875 -55.8125 98.0859375 C-39.98897492 93.34712139 -27.34589611 84.76042936 -19.4296875 70.08984375 C-11.32048459 53.29827437 -7.39017982 35.67656149 -3.71337891 17.49023438 C-2.51982006 11.65070073 -1.2590096 5.82574571 0 0 Z " fill="#FD541C" transform="translate(776,149)"/>
<path d="M0 0 C1.96082767 1.32816857 3.7707693 2.75101718 5.58935547 4.26806641 C6.270625 4.80689453 6.95189453 5.34572266 7.65380859 5.90087891 C9.79714373 7.60531254 11.91338895 9.33928881 14.02685547 11.08056641 C15.36857916 12.17130163 16.71101449 13.26116213 18.05419922 14.35009766 C20.04830282 15.96952626 22.04007847 17.59142752 24.02514648 19.22192383 C29.24119654 23.49515327 34.59918746 27.54343647 40.01806641 31.55444336 C45.57571914 35.69000685 50.94439884 40.03122348 56.29711914 44.42724609 C61.16130045 48.41091021 66.1310865 52.19784079 71.18701172 55.93603516 C75.91708195 59.5079864 80.47222605 63.2880305 85.02685547 67.08056641 C84.45863047 70.74967638 83.08305949 72.32534875 80.40185547 74.83056641 C77.63699686 77.48719212 75.01761584 80.16511417 72.52685547 83.08056641 C69.58106752 86.50839238 66.465102 89.69191458 63.21435547 92.83056641 C60.66482677 95.45293878 58.28962221 98.20134997 55.89160156 100.96191406 C52.95083442 104.30309988 49.89632694 107.53348138 46.83935547 110.76806641 C45.51604741 112.1739481 44.19313575 113.58020302 42.87060547 114.98681641 C42.22091797 115.67775391 41.57123047 116.36869141 40.90185547 117.08056641 C38.19966306 119.96290497 35.51659498 122.86255934 32.83935547 125.76806641 C32.35490967 126.29376221 31.87046387 126.81945801 31.37133789 127.36108398 C29.92276641 128.93386725 28.47478823 130.50719514 27.02685547 132.08056641 C20.69537986 138.95613659 14.34746458 145.81537127 7.96435547 152.64306641 C1.94441423 159.08551757 -4.04714775 165.55143909 -9.97314453 172.08056641 C-10.69888672 172.87720703 -11.42462891 173.67384766 -12.17236328 174.49462891 C-12.80787109 175.20361328 -13.44337891 175.91259766 -14.09814453 176.64306641 C-14.63697266 177.24248047 -15.17580078 177.84189453 -15.73095703 178.45947266 C-17.18607181 180.17599938 -17.18607181 180.17599938 -17.97314453 183.08056641 C-18.96314453 183.08056641 -19.95314453 183.08056641 -20.97314453 183.08056641 C-21.04323783 160.64508552 -21.09613432 138.20962271 -21.12858105 115.77405453 C-21.14404732 105.35673804 -21.16513233 94.9394896 -21.19946289 84.5222168 C-21.22937251 75.44210644 -21.24872127 66.36204537 -21.25541002 57.28188711 C-21.25931961 52.47438649 -21.26850283 47.66702687 -21.2903347 42.85957146 C-21.31072448 38.33291851 -21.31697328 33.80646441 -21.31246758 29.2797699 C-21.31329166 27.6201526 -21.31924248 25.96052853 -21.33076096 24.300951 C-21.34574439 22.03042399 -21.34207728 19.76064224 -21.33390808 17.49009705 C-21.33667346 16.22078811 -21.33943884 14.95147917 -21.34228802 13.64370632 C-20.83917425 8.78742469 -19.63725887 4.6406736 -15.97314453 1.20556641 C-11.15063812 -1.50709345 -5.12749039 -2.38927602 0 0 Z " fill="#FD541C" transform="translate(686.97314453125,358.91943359375)"/>
<path d="M0 0 C0.99 0 1.98 0 3 0 C3.43699219 1.2684375 3.43699219 1.2684375 3.8828125 2.5625 C7.72631982 13.1986209 11.60165484 20.89172204 22 26 C25.29793708 27.4369583 28.62288583 28.76126345 32 30 C31.505 31.485 31.505 31.485 31 33 C28.8125 33.95703125 28.8125 33.95703125 26 34.8125 C16.79876342 37.99892045 10.94484917 41.78860985 6.21875 50.453125 C4.56319504 53.91281037 3.212896 57.36131201 2 61 C1.34 61 0.68 61 0 61 C-0.32613281 60.11957031 -0.65226563 59.23914063 -0.98828125 58.33203125 C-1.42527344 57.17058594 -1.86226562 56.00914062 -2.3125 54.8125 C-2.74175781 53.66394531 -3.17101562 52.51539063 -3.61328125 51.33203125 C-7.79602062 41.2816744 -14.88575706 38.20510888 -24.625 34.125 C-26.41349667 33.40870033 -28.2040482 32.69739709 -30 32 C-30 31.34 -30 30.68 -30 30 C-28.92621094 29.49210937 -27.85242188 28.98421875 -26.74609375 28.4609375 C-11.85934277 21.30747293 -5.59282922 15.65992183 0 0 Z " fill="#FD5821" transform="translate(574,258)"/>
<path d="M0 0 C0.82951172 -0.03673828 1.65902344 -0.07347656 2.51367188 -0.11132812 C8.27578404 -0.15225868 11.23930224 1.08135509 15.39916992 5.07446289 C18.51810484 8.67687114 17.94634519 12.79118843 18 17.3125 C18.02900391 18.11171875 18.05800781 18.9109375 18.08789062 19.734375 C18.14578687 25.14990047 17.45877325 28.38470476 13.6875 32.5625 C8.83097279 35.89208416 4.32415827 36.11097418 -1.375 36.125 C-2.16455078 36.16173828 -2.95410156 36.19847656 -3.76757812 36.23632812 C-9.38972959 36.27874167 -9.38972959 36.27874167 -11.94873047 34.29248047 C-16.52145204 28.98746668 -16.52056507 24.28176763 -16.5625 17.6875 C-16.583125 16.88441406 -16.60375 16.08132813 -16.625 15.25390625 C-16.66355235 9.40358768 -15.69982937 6.20540721 -11.70703125 1.78515625 C-7.91247628 -0.15235714 -4.20099599 0.00965746 0 0 Z " fill="#FD561F" transform="translate(227.3125,577.4375)"/>
<path d="M0 0 C0.97195312 -0.02707031 1.94390625 -0.05414062 2.9453125 -0.08203125 C6.7484096 -0.04576193 9.76124652 0.0694627 13.00146484 2.17651367 C16.66506687 5.92863736 17.73140978 9.41798832 17.72265625 14.59570312 C17.69042969 15.36849609 17.65820312 16.14128906 17.625 16.9375 C17.63466797 18.10249023 17.63466797 18.10249023 17.64453125 19.29101562 C17.54650197 24.55340565 16.53876141 27.76728578 13 31.875 C9.34890416 34.80093592 4.52950859 34.20543979 0.0625 34.1875 C-0.73607422 34.20361328 -1.53464844 34.21972656 -2.35742188 34.23632812 C-8.16878605 34.24114284 -11.3896824 33.23289129 -15.77734375 29.26953125 C-17.71485714 25.47497628 -17.55284254 21.76349599 -17.5625 17.5625 C-17.59923828 16.73298828 -17.63597656 15.90347656 -17.67382812 15.04882812 C-17.70504964 10.65353316 -17.23002222 7.4587176 -14.65234375 3.82421875 C-10.44328454 -0.43844317 -5.68751102 -0.15840548 0 0 Z " fill="#FD5620" transform="translate(164,617.125)"/>
<path d="M0 0 C0.79921875 -0.02900391 1.5984375 -0.05800781 2.421875 -0.08789062 C7.83559469 -0.14576756 11.0127947 0.61493877 15.25 4.3125 C16.62963719 8.45141157 16.51367047 12.35143776 16.5625 16.6875 C16.59150391 17.53828125 16.62050781 18.3890625 16.65039062 19.265625 C16.6929657 23.47073223 16.62759554 25.70679004 14.35546875 29.3515625 C10.40693878 33.0290431 6.58380462 32.53010784 1.4375 32.5625 C0.62990234 32.583125 -0.17769531 32.60375 -1.00976562 32.625 C-6.88402976 32.66348822 -10.11630375 31.72672157 -14.53125 27.6796875 C-16.41901763 24.01306191 -16.26313633 20.50319433 -16.25 16.4375 C-16.27835937 15.64730469 -16.30671875 14.85710938 -16.3359375 14.04296875 C-16.34993309 9.83729528 -16.04327646 7.12947193 -13.34375 3.8046875 C-9.11478557 -0.25868495 -5.62606558 0.06676502 0 0 Z " fill="#FD561E" transform="translate(303.75,688.6875)"/>
<path d="M0 0 C0.83337891 -0.01933594 1.66675781 -0.03867187 2.52539062 -0.05859375 C6.82049909 -0.02464032 9.70011354 0.28331166 13.09765625 3.0390625 C16.91676737 7.04580032 16.80352711 10.05741709 16.875 15.375 C16.90400391 16.07882812 16.93300781 16.78265625 16.96289062 17.5078125 C17.02521511 22.66636213 15.95808075 25.53806677 12.5625 29.625 C8.52092649 32.31938234 5.43146317 31.99245793 0.6875 32 C-0.11558594 32.02449219 -0.91867187 32.04898438 -1.74609375 32.07421875 C-5.82900156 32.09439787 -7.91364106 31.95564343 -11.4453125 29.7265625 C-15.40251539 25.55210141 -14.72733034 21.30594298 -14.8125 15.8125 C-14.84988281 14.90951172 -14.88726562 14.00652344 -14.92578125 13.07617188 C-14.98338927 8.72036536 -14.85033688 6.28637302 -12.50390625 2.52734375 C-8.25890593 -0.10617874 -4.90358595 -0.11324679 0 0 Z " fill="#FD551E" transform="translate(268.4375,627.375)"/>
<path d="M0 0 C0.75152344 -0.02900391 1.50304687 -0.05800781 2.27734375 -0.08789062 C7.57423779 -0.14797756 10.55140278 0.79845667 14.75 4.3125 C16.43156955 7.67563909 15.97674377 11.43016587 16 15.125 C16.020625 15.93259766 16.04125 16.74019531 16.0625 17.57226562 C16.09337544 22.28463021 15.92501269 25.55826202 12.75 29.3125 C7.69685345 33.26555962 -1.21632236 32.07830299 -7.26367188 31.6015625 C-9.84946205 31.22526265 -11.43515345 30.6453454 -13.375 28.875 C-15.79851477 24.8823621 -15.81558248 20.31020291 -15.9375 15.75 C-15.9576416 15.01789307 -15.9777832 14.28578613 -15.99853516 13.53149414 C-15.86885013 7.85039121 -14.29292763 5.28203106 -10.25 1.3125 C-7.02434056 -0.30032972 -3.54059192 0.04462931 0 0 Z " fill="#FD571F" transform="translate(214.25,660.6875)"/>
<path d="M0 0 C0.99 0 1.98 0 3 0 C3.27972656 0.79664063 3.55945313 1.59328125 3.84765625 2.4140625 C6.38538247 9.1214932 8.58054891 14.39143282 15 18 C17.95220568 19.22890859 20.90528249 20.200005 24 21 C24 21.99 24 22.98 24 24 C23.19175781 24.29132813 22.38351562 24.58265625 21.55078125 24.8828125 C13.76901082 27.86785833 9.34131493 29.81177058 5.82421875 37.60546875 C4.8199047 40.05240574 3.88199954 42.50674991 3 45 C2.01 45 1.02 45 0 45 C-0.23074219 44.33613281 -0.46148438 43.67226562 -0.69921875 42.98828125 C-3.03123397 36.674327 -5.2380973 32.13513396 -11.3125 28.6875 C-11.869375 28.460625 -12.42625 28.23375 -13 28 C-13 27.34 -13 26.68 -13 26 C-15.64 25.67 -18.28 25.34 -21 25 C-21 23.68 -21 22.36 -21 21 C-19.989375 20.5875 -18.97875 20.175 -17.9375 19.75 C-17.29683594 19.46253906 -16.65617188 19.17507812 -15.99609375 18.87890625 C-14.19103657 18.08411591 -12.34671155 17.38001683 -10.5 16.6875 C-4.84119771 13.49239395 -2.5125043 5.7123198 0 0 Z " fill="#FD5822" transform="translate(631,187)"/>
<path d="M0 0 C3.28675392 1.604604 5.34349526 3.68699052 7 7 C8.02825282 18.26021125 8.02825282 18.26021125 5.125 22.75 C4.42375 23.4925 3.7225 24.235 3 25 C2.34 25 1.68 25 1 25 C1 25.66 1 26.32 1 27 C-11.88176258 28.03250769 -11.88176258 28.03250769 -16.33203125 25.86328125 C-19.83592088 22.34234106 -20.40085333 18.80208844 -20.625 13.9375 C-20.35635747 8.70224672 -19.54158669 5.84515126 -16 2 C-11.12085332 -1.25276446 -5.6987946 -0.70623099 0 0 Z " fill="#FC5923" transform="translate(117,574)"/>
<path d="M0 0 C3.32899994 1.33958046 5.23007531 2.86636285 7 6 C8.0989552 11.25774643 8.2005559 17.00306608 5.375 21.75 C2.41765514 24.62187246 -1.03107913 24.55030587 -5 24.75 C-12.68382817 24.36339229 -12.68382817 24.36339229 -15.375 21.75 C-18.20188427 17.0683221 -17.81187199 11.22231172 -17 6 C-12.93328483 -0.91341579 -7.48117872 -1.0173581 0 0 Z " fill="#FD5B26" transform="translate(169,545)"/>
<path d="M0 0 C4.12648007 0.05910323 6.5443703 0.33555566 9.5 3.3125 C12.84291301 7.967674 12.34818392 13.01419985 11.8125 18.5 C11.1525 18.5 10.4925 18.5 9.8125 18.5 C9.52375 19.139375 9.235 19.77875 8.9375 20.4375 C7.8125 22.5 7.8125 22.5 5.8125 23.5 C1.19187295 23.92526125 -2.90040557 24.06310381 -7.1875 22.1875 C-9.75436445 20.02170812 -11.06484162 18.33407701 -11.55859375 14.9765625 C-11.73951228 7.20770805 -11.73951228 7.20770805 -8.75 3.375 C-7.904375 2.75625 -7.05875 2.1375 -6.1875 1.5 C-4.47179563 -0.21570437 -2.34551623 0.12661356 0 0 Z " fill="#FD5720" transform="translate(121.1875,507.5)"/>
<path d="M0 0 C2.16015625 0.47265625 2.16015625 0.47265625 5.22265625 2.41015625 C7.82987325 6.53124118 8.19961479 9.72207302 7.16015625 14.47265625 C5.13010387 17.68144872 3.73716178 19.10193162 0 19.98046875 C-4.5043027 20.32637513 -6.32530335 19.89268923 -9.90234375 16.97265625 C-12.55549898 13.06225674 -12.57286273 10.0906758 -11.83984375 5.47265625 C-8.69040553 0.59610675 -5.54616529 -0.36110258 0 0 Z " fill="#FC5924" transform="translate(251.83984375,725.52734375)"/>
<path d="M0 0 C3.82838766 0.91791751 5.43621117 2.46342703 8.00390625 5.48046875 C8.77543611 9.80103596 8.53138491 11.67166814 6.12890625 15.35546875 C3.35165736 18.13271764 2.60265735 18.4472048 -1.37109375 18.66796875 C-4.70348353 18.49560376 -6.3230391 18.36150721 -8.99609375 16.48046875 C-11.45829147 12.78717217 -11.78808058 9.76553435 -10.99609375 5.48046875 C-8.06464375 1.08329375 -5.37791631 -0.37757667 0 0 Z " fill="#FD5721" transform="translate(186.99609375,729.51953125)"/>
<path d="M0 0 C2.5625 1.4375 2.5625 1.4375 4 4 C4.74399963 8.26820838 4.69045709 11.71323905 2.625 15.5625 C-1.49157248 17.8168135 -5.42538539 17.86628915 -10 17 C-13.38318343 14.34178445 -13.88402829 12.72160177 -14.5625 8.5 C-14 5 -14 5 -12.0625 2.0625 C-7.96075152 -0.69990204 -4.81058577 -0.93339724 0 0 Z " fill="#FD5923" transform="translate(145,698)"/>
<path d="M0 0 C2.5 0.9375 2.5 0.9375 4 3 C4.63281532 6.12791573 4.62474383 8.87080063 4 12 C1.9375 15.0625 1.9375 15.0625 -1 17 C-4.92582814 17.6198676 -7.00082919 17.58925458 -10.4375 15.5625 C-12.75830672 11.75637699 -12.76474799 8.34153806 -12 4 C-9.16869077 -0.83681994 -5.10735065 -0.81633883 0 0 Z " fill="#FC5D26" transform="translate(362,728)"/>
<path d="M0 0 C0.7734375 0.00386719 1.546875 0.00773438 2.34375 0.01171875 C4.5 0.3125 4.5 0.3125 7.5 2.3125 C7.93359375 4.58984375 7.93359375 4.58984375 7.9375 7.25 C7.95683594 8.12527344 7.97617188 9.00054688 7.99609375 9.90234375 C7.5 12.3125 7.5 12.3125 5.7265625 14.10546875 C2.07960942 16.08250121 -0.3814446 15.70474337 -4.5 15.3125 C-6.70307905 13.72388518 -7.40204249 12.84262301 -7.8984375 10.15625 C-7.89070313 9.3828125 -7.88296875 8.609375 -7.875 7.8125 C-7.88273437 7.0390625 -7.89046875 6.265625 -7.8984375 5.46875 C-7.04562261 0.85351646 -4.37472705 -0.09478575 0 0 Z " fill="#FD5822" transform="translate(108.5,653.6875)"/>
<path d="M0 0 C2.6923481 2.18753283 2.93936827 3.58423955 3.4375 7 C3 10 3 10 1.375 12.375 C-1.73034361 14.49970879 -3.3013396 14.60386292 -7 14 C-9.875 12.375 -9.875 12.375 -12 10 C-12.67927401 6.37720527 -12.46942769 4.74326051 -10.5 1.625 C-6.73102871 -0.82483134 -4.45665069 -0.5659239 0 0 Z " fill="#FD5A24" transform="translate(303,764)"/>
<path d="M0 0 C2 1.0625 2 1.0625 3 3 C3.4375 6.5 3.4375 6.5 3 10 C0.67810344 12.87915173 -0.88213077 12.98552483 -4.5625 13.4375 C-8 13 -8 13 -9.9375 11.375 C-11.295454 8.33957342 -11.42030443 6.29238472 -11 3 C-8.76734719 -1.18622402 -4.17412169 -0.61742217 0 0 Z " fill="#FD5D28" transform="translate(227,772)"/>
<path d="M0 0 C0.66 0.99 1.32 1.98 2 3 C1.67 3.33 1.34 3.66 1 4 C0.89205032 5.5304346 0.85317012 7.0657961 0.84178162 8.59999084 C0.8319928 9.59423569 0.82220398 10.58848053 0.81211853 11.612854 C0.80636307 12.71264587 0.8006076 13.81243774 0.79467773 14.94555664 C0.78477814 16.09662399 0.77487854 17.24769135 0.76467896 18.43363953 C0.73295338 22.25912379 0.70826297 26.0846205 0.68359375 29.91015625 C0.66303376 32.55431959 0.64203756 35.19847957 0.62062073 37.84263611 C0.57064394 44.10412039 0.52572369 50.36563045 0.48259836 56.62716526 C0.4332685 63.75404844 0.37833466 70.88088492 0.32291877 78.00772297 C0.20902223 92.67177112 0.10219997 107.33586573 0 122 C-0.33 122 -0.66 122 -1 122 C-1.02333844 106.38848712 -1.04098383 90.77697894 -1.05181217 75.16545296 C-1.05697311 67.91709943 -1.06401199 60.66875673 -1.07543945 53.42041016 C-1.08539243 47.10431724 -1.0918549 40.78823215 -1.09408849 34.47213161 C-1.09539455 31.12640149 -1.09847382 27.7806938 -1.10573006 24.43497086 C-1.11294511 20.70419207 -1.11399074 16.97346038 -1.11352539 13.24267578 C-1.11712067 12.12777771 -1.12071594 11.01287964 -1.12442017 9.86419678 C-1.1230455 8.85174896 -1.12167084 7.83930115 -1.12025452 6.7961731 C-1.12117631 5.91309542 -1.1220981 5.03001774 -1.12304783 4.12018013 C-1 2 -1 2 0 0 Z " fill="#FC6537" transform="translate(325,496)"/>
<path d="M0 0 C3 0.25 3 0.25 5 2.25 C5.25 5.25 5.25 5.25 5 8.25 C3 10.25 3 10.25 0 10.5 C-3 10.25 -3 10.25 -5 8.25 C-5.25 5.25 -5.25 5.25 -5 2.25 C-3 0.25 -3 0.25 0 0 Z " fill="#FD6731" transform="translate(400,767.75)"/>
<path d="M0 0 C0 3.74814434 -0.82053261 4.22916243 -3.359375 6.87109375 C-4.06320312 7.61037109 -4.76703125 8.34964844 -5.4921875 9.11132812 C-6.23726562 9.87896484 -6.98234375 10.64660156 -7.75 11.4375 C-8.47960937 12.20126953 -9.20921875 12.96503906 -9.9609375 13.75195312 C-13.26902627 17.20740221 -16.61057481 20.62423425 -20 24 C-20.66 23.67 -21.32 23.34 -22 23 C-21.35933594 22.3709375 -20.71867188 21.741875 -20.05859375 21.09375 C-15.36982546 16.45389584 -10.82855301 11.77290079 -6.5390625 6.76171875 C-4.46575944 4.38847084 -2.26166261 2.19312738 0 0 Z " fill="#FB6A3A" transform="translate(697,525)"/>
<path d="M0 0 C0.66 0.33 1.32 0.66 2 1 C-2.95 5.95 -7.9 10.9 -13 16 C-13 11.93645091 -11.47015238 10.94829419 -8.75 8 C-7.96109375 7.13375 -7.1721875 6.2675 -6.359375 5.375 C-4.3351828 3.33740256 -2.34982916 1.63841299 0 0 Z " fill="#FEDED2" transform="translate(817,288)"/>
<path d="M0 0 C0.33 0 0.66 0 1 0 C1.32006647 4.80099705 0.53749225 7.63283008 -1.8125 11.8125 C-2.33457031 12.76769531 -2.85664062 13.72289062 -3.39453125 14.70703125 C-5 17 -5 17 -8 18 C-6.443154 13.98696492 -4.68861143 10.0907072 -2.875 6.1875 C-2.33617187 5.02605469 -1.79734375 3.86460937 -1.2421875 2.66796875 C-0.62730469 1.34732422 -0.62730469 1.34732422 0 0 Z " fill="#FB784C" transform="translate(761,209)"/>
<path d="M0 0 C0.33 0.99 0.66 1.98 1 3 C-8.55650858 10.32744702 -8.55650858 10.32744702 -12 12 C-12.99 11.67 -13.98 11.34 -15 11 C-14.67 11.99 -14.34 12.98 -14 14 C-14.66 14 -15.32 14 -16 14 C-16 12.68 -16 11.36 -16 10 C-14.989375 9.5875 -13.97875 9.175 -12.9375 8.75 C-5.51058659 5.62204076 -5.51058659 5.62204076 0 0 Z " fill="#FC784B" transform="translate(626,198)"/>
<path d="M0 0 C0.66 0.33 1.32 0.66 2 1 C-1.96 4.96 -5.92 8.92 -10 13 C-10 8.41771462 -7.08388033 6.1816619 -4 3 C-1.625 1.0625 -1.625 1.0625 0 0 Z " fill="#FDD8CB" transform="translate(259,354)"/>
<path d="M0 0 C0.99 0 1.98 0 3 0 C3.66 2.64 4.32 5.28 5 8 C4.401875 7.649375 3.80375 7.29875 3.1875 6.9375 C0.89186786 5.66695302 0.89186786 5.66695302 -2 7 C-1.34 4.69 -0.68 2.38 0 0 Z " fill="#FD703D" transform="translate(631,187)"/>
<path d="M0 0 C1.63110167 5.97635651 1.45895241 11.26244438 -1 17 C-1.66 17.33 -2.32 17.66 -3 18 C-2.41509121 11.85845775 -1.45933748 5.99320151 0 0 Z " fill="#FC8A5F" transform="translate(775,154)"/>
<path d="M0 0 C0 1.65 0 3.3 0 5 C-2.97 4.505 -2.97 4.505 -6 4 C-6.33 3.01 -6.66 2.02 -7 1 C-4.53721199 -0.231394 -2.7204945 -0.07159196 0 0 Z " fill="#FE5E2C" transform="translate(551,287)"/>
<path d="M0 0 C1.48828125 1.11328125 1.48828125 1.11328125 3 3 C3.29296875 5.91796875 3.29296875 5.91796875 3.1875 9.1875 C3.14689453 10.81751953 3.14689453 10.81751953 3.10546875 12.48046875 C3.07066406 13.31191406 3.03585938 14.14335938 3 15 C2.67 15 2.34 15 2 15 C1.67 13.02 1.34 11.04 1 9 C0.67 9 0.34 9 0 9 C-1.125 2.25 -1.125 2.25 0 0 Z " fill="#FC754C" transform="translate(121,578)"/>
<path d="M0 0 C0.66 0.99 1.32 1.98 2 3 C1.67 3.33 1.34 3.66 1 4 C0.84379445 5.41327947 0.74943827 6.8335459 0.68359375 8.25390625 C0.64169922 9.10791016 0.59980469 9.96191406 0.55664062 10.84179688 C0.51732422 11.73962891 0.47800781 12.63746094 0.4375 13.5625 C0.39431641 14.46419922 0.35113281 15.36589844 0.30664062 16.29492188 C0.20021858 18.52978485 0.09820012 20.76476308 0 23 C-0.33 23 -0.66 23 -1 23 C-1.02894547 19.54168414 -1.04678 16.08339928 -1.0625 12.625 C-1.07087891 11.64015625 -1.07925781 10.6553125 -1.08789062 9.640625 C-1.09111328 8.69960938 -1.09433594 7.75859375 -1.09765625 6.7890625 C-1.10289307 5.91975098 -1.10812988 5.05043945 -1.11352539 4.15478516 C-1 2 -1 2 0 0 Z " fill="#FB7043" transform="translate(325,496)"/>
<path d="M0 0 C0.66 0.33 1.32 0.66 2 1 C-1.3 4.3 -4.6 7.6 -8 11 C-8 6.67750434 -5.85084926 5.11604454 -3 2 C-2.01 1.34 -1.02 0.68 0 0 Z " fill="#FDD0C0" transform="translate(590,296)"/>
<path d="M0 0 C1.33256282 3.64120668 0.65840377 5.66876554 -0.8125 9.1875 C-1.16957031 10.06792969 -1.52664062 10.94835937 -1.89453125 11.85546875 C-3 14 -3 14 -5 15 C-1.92482916 4.44191344 -1.92482916 4.44191344 0 0 Z " fill="#FB7F56" transform="translate(131,305)"/>
<path d="M0 0 C0.33 0 0.66 0 1 0 C1.27719381 1.57879955 1.52074143 3.16353067 1.75 4.75 C1.88921875 5.63171875 2.0284375 6.5134375 2.171875 7.421875 C2 10 2 10 -2 14 C-1.34 9.38 -0.68 4.76 0 0 Z " fill="#FC5B29" transform="translate(178,635)"/>
<path d="M0 0 C0.66 0.33 1.32 0.66 2 1 C1.67 3.64 1.34 6.28 1 9 C0.34 9 -0.32 9 -1 9 C-1.125 2.25 -1.125 2.25 0 0 Z " fill="#FD6536" transform="translate(364,730)"/>
<path d="M0 0 C0.99 0.33 1.98 0.66 3 1 C2.67 1.99 2.34 2.98 2 4 C1.01 4 0.02 4 -1 4 C-1.99 5.485 -1.99 5.485 -3 7 C-3.66 6.67 -4.32 6.34 -5 6 C-3.35 4.02 -1.7 2.04 0 0 Z " fill="#FD7444" transform="translate(769,575)"/>
<path d="M0 0 C0.33 0.66 0.66 1.32 1 2 C-0.98 4.31 -2.96 6.62 -5 9 C-5.66 8.67 -6.32 8.34 -7 8 C-4.69 5.36 -2.38 2.72 0 0 Z " fill="#FC6F40" transform="translate(716,640)"/>
<path d="M0 0 C2.97 0.495 2.97 0.495 6 1 C6 1.99 6 2.98 6 4 C3.03 3.505 3.03 3.505 0 3 C0 2.01 0 1.02 0 0 Z " fill="#FC6535" transform="translate(666,263)"/>
<path d="M0 0 C0.33 0.66 0.66 1.32 1 2 C-0.25 4.5625 -0.25 4.5625 -2 7 C-2.99 7.33 -3.98 7.66 -5 8 C-3.8141763 4.62496331 -2.72426311 2.35277269 0 0 Z " fill="#FB693C" transform="translate(758,219)"/>
<path d="M0 0 C1.65 0 3.3 0 5 0 C4.67 2.31 4.34 4.62 4 7 C3.34 5.68 2.68 4.36 2 3 C1.01 3.495 1.01 3.495 0 4 C0 2.68 0 1.36 0 0 Z " fill="#FD6637" transform="translate(776,149)"/>
</svg>
