<?xml version="1.0" encoding="UTF-8"?>
<svg version="1.1" xmlns="http://www.w3.org/2000/svg" width="502" height="497">
<path d="M0 0 C0.8971875 0.45246094 1.794375 0.90492187 2.71875 1.37109375 C15.56492302 8.02873117 26.6044451 17.54659722 37.89208984 26.50097656 C39.75995618 27.98164327 41.62993786 29.45960818 43.5 30.9375 C44.06307861 31.38585205 44.62615723 31.8342041 45.20629883 32.29614258 C47.86746997 34.39865427 50.54475335 36.37616525 53.40625 38.19140625 C54.2621875 38.78824219 55.118125 39.38507813 56 40 C56 40.66 56 41.32 56 42 C56.72316406 42.24878906 57.44632813 42.49757812 58.19140625 42.75390625 C61.27822161 44.12343907 63.36972741 45.74955201 65.9375 47.9375 C67.35675781 49.12666016 67.35675781 49.12666016 68.8046875 50.33984375 C69.31354492 50.7663623 69.82240234 51.19288086 70.34667969 51.63232422 C73.37772641 54.1396963 76.47012249 56.5689911 79.5625 59 C80.1702124 59.48073975 80.7779248 59.96147949 81.40405273 60.45678711 C84.55079313 62.95888019 84.55079313 62.95888019 88 65 C88 65.66 88 66.32 88 67 C88.7321875 67.24878906 89.464375 67.49757813 90.21875 67.75390625 C93.24575401 69.11010608 95.09799981 70.66659489 97.5 72.9375 C99.86949347 75.16932923 101.96512811 76.97957643 104.78125 78.62890625 C105.87953125 79.30759766 105.87953125 79.30759766 107 80 C107 80.66 107 81.32 107 82 C107.99 82.2784375 107.99 82.2784375 109 82.5625 C112.45618239 84.2185874 114.74099589 86.31143377 117.5625 88.87109375 C120.44929782 91.39241556 123.45626534 93.73614535 126.5 96.0625 C127.05840576 96.49046875 127.61681152 96.9184375 128.19213867 97.359375 C131.98355209 100.25315891 135.81670961 103.08442908 139.70703125 105.84375 C140.13371094 106.2253125 140.56039063 106.606875 141 107 C141 107.66 141 108.32 141 109 C141.86625 109.309375 141.86625 109.309375 142.75 109.625 C146.66850794 112.01964374 148.57583774 115.72751322 150 120 C150.10422637 122.07408668 150.14861755 124.15136125 150.16113281 126.22802734 C150.17074036 127.51301117 150.1803479 128.797995 150.19024658 130.12191772 C150.19509448 131.52658918 150.19937333 132.93126269 150.203125 134.3359375 C150.20887878 135.77698773 150.21463649 137.21803794 150.22039795 138.65908813 C150.23089928 141.68028113 150.23674767 144.70144758 150.24023438 147.72265625 C150.24571837 151.58857068 150.26974766 155.45413279 150.29820633 159.31993675 C150.31685566 162.29683448 150.32203951 165.2736477 150.32357025 168.25059891 C150.32659197 169.67552238 150.33460432 171.10044453 150.34775543 172.52531052 C150.3648625 174.521197 150.36108413 176.51722919 150.35644531 178.51318359 C150.36009094 179.64774994 150.36373657 180.78231628 150.36749268 181.95126343 C149.85904934 186.16933332 148.16826054 188.74520164 145.3125 191.8125 C141.81620664 193.60789389 138.77322376 193.80181005 135 193 C131.69026494 191.40154841 128.90077483 189.24272869 126 187 C125.0203125 186.26136719 124.040625 185.52273438 123.03125 184.76171875 C116.67513079 179.94324403 110.42847694 174.98232327 104.16796875 170.04077148 C100.42448177 167.09402609 96.63714949 164.21630938 92.8125 161.375 C87.92377566 157.73612263 83.20534143 153.92802426 78.5078125 150.046875 C75.79192935 147.83017287 73.01607624 145.72222176 70.19921875 143.63671875 C62.48657352 137.8967572 54.92659887 131.96496109 47.4375 125.9375 C42.04101753 121.59544734 36.56427698 117.38921978 31.00390625 113.2578125 C27.75897691 110.8188409 24.56198516 108.32635047 21.375 105.8125 C20.80289795 105.36156982 20.2307959 104.91063965 19.64135742 104.44604492 C18.42395623 103.48637209 17.20659104 102.52665358 15.98925781 101.56689453 C12.24863689 98.62048988 8.50245763 95.68131606 4.75 92.75 C3.98494141 92.15195557 3.21988281 91.55391113 2.43164062 90.93774414 C-2.41088428 87.17407751 -7.30879562 83.58954091 -12.4453125 80.234375 C-12.95835937 79.82703125 -13.47140625 79.4196875 -14 79 C-14 78.34 -14 77.68 -14 77 C-15.051875 76.62875 -15.051875 76.62875 -16.125 76.25 C-19 75 -19 75 -21.9375 73 C-28.88830808 68.46069676 -35.91523651 68.30055481 -44 69 C-47.52248006 70.25494462 -47.52248006 70.25494462 -50 72 C-51.485 72.495 -51.485 72.495 -53 73 C-54.1025173 75.16621868 -54.1025173 75.16621868 -55 78 C-55.50670731 79.18577637 -56.01341461 80.37155273 -56.53547668 81.59326172 C-58.27788831 86.25053749 -58.44079166 90.51262321 -58.43237305 95.4453125 C-58.4425647 96.35356277 -58.45275635 97.26181305 -58.46325684 98.19758606 C-58.49323957 101.17345466 -58.50263022 104.14900059 -58.51171875 107.125 C-58.52857635 109.19865984 -58.54672804 111.27230954 -58.56611633 113.34594727 C-58.61350495 118.78412707 -58.64338638 124.2222657 -58.66955566 129.6605835 C-58.69941742 135.21781543 -58.74592845 140.77490568 -58.79101562 146.33203125 C-58.87692203 157.22127988 -58.94432361 168.11055777 -59 179 C-64.69042969 181.07080078 -64.69042969 181.07080078 -67.4765625 180.43359375 C-70.69697755 178.60403907 -73.5201117 176.40315124 -76.375 174.0625 C-82.23253812 169.34054243 -88.2224884 164.8586435 -94.37646484 160.52954102 C-95.95245648 159.40008734 -97.48160981 158.20578044 -99 157 C-99 156.34 -99 155.68 -99 155 C-100.051875 154.62875 -100.051875 154.62875 -101.125 154.25 C-104.39514548 152.82819762 -107.141122 151.12753712 -110 149 C-110 148.34 -110 147.68 -110 147 C-110.55816406 146.73445312 -111.11632812 146.46890625 -111.69140625 146.1953125 C-114.21793321 144.88716149 -116.56535326 143.44668428 -118.9375 141.875 C-119.77152344 141.33617187 -120.60554688 140.79734375 -121.46484375 140.2421875 C-125.70646955 136.49073417 -128.57495316 132.75334436 -129.45762634 127.03561401 C-129.62734785 123.49326698 -129.64053072 119.98363915 -129.59375 116.4375 C-129.59379028 115.13280762 -129.59383057 113.82811523 -129.59387207 112.48388672 C-129.59222483 109.72671627 -129.57365875 106.97036461 -129.54199219 104.21337891 C-129.50262355 100.72804352 -129.4981813 97.2437827 -129.50507069 93.75826836 C-129.54347166 64.91987046 -126.16585808 37.51715863 -105 16 C-104.34 16 -103.68 16 -103 16 C-103 15.34 -103 14.68 -103 14 C-100.88800641 12.30259406 -98.78222497 10.73271354 -96.5625 9.1875 C-95.92086914 8.73681152 -95.27923828 8.28612305 -94.61816406 7.82177734 C-89.90593851 4.5488062 -85.17989917 1.48904246 -80 -1 C-79.29488281 -1.34417969 -78.58976562 -1.68835938 -77.86328125 -2.04296875 C-53.8604666 -12.67919052 -23.21032627 -12.59674353 0 0 Z " fill="#F9F9F9" transform="translate(161,92)"/>
<path d="M0 0 C0.8311734 0.00187317 1.6623468 0.00374634 2.51870728 0.00567627 C4.261699 0.01235966 6.00467668 0.02619948 7.74755859 0.046875 C10.42689816 0.07827543 13.10565017 0.08787496 15.78515625 0.09375 C17.48177808 0.10291109 19.17839389 0.11328399 20.875 0.125 C22.08112442 0.13137482 22.08112442 0.13137482 23.31161499 0.13787842 C28.92184001 0.21090251 28.92184001 0.21090251 30.0390625 1.328125 C29.86941013 7.79915106 27.56455491 10.76940621 23.3515625 15.265625 C22.30339447 16.41821824 21.25782913 17.5731836 20.21484375 18.73046875 C19.42400391 19.60638672 19.42400391 19.60638672 18.6171875 20.5 C16.46169111 22.99696117 14.52282517 25.63110923 12.56811523 28.28637695 C9.43175506 32.47436675 6.05176181 36.47203712 2.71875 40.50390625 C0.23769045 43.52916047 -2.13784666 46.51357724 -4.234375 49.8203125 C-5.08902344 51.06167969 -5.08902344 51.06167969 -5.9609375 52.328125 C-6.6209375 52.328125 -7.2809375 52.328125 -7.9609375 52.328125 C-8.19167969 52.85921875 -8.42242187 53.3903125 -8.66015625 53.9375 C-10.37152594 57.08271998 -12.5452093 59.79127057 -14.7734375 62.578125 C-15.25554687 63.1865625 -15.73765625 63.795 -16.234375 64.421875 C-20.48188304 69.76656543 -24.79419989 75.05859645 -29.10913086 80.34887695 C-32.72610672 84.78923819 -36.30078754 89.25986093 -39.8359375 93.765625 C-40.28573975 94.33812988 -40.73554199 94.91063477 -41.19897461 95.50048828 C-43.19743705 98.05087869 -45.17638396 100.61344599 -47.12890625 103.19921875 C-47.75410156 104.02550781 -48.37929688 104.85179687 -49.0234375 105.703125 C-49.81427734 106.76660156 -49.81427734 106.76660156 -50.62109375 107.8515625 C-51.06324219 108.33882813 -51.50539063 108.82609375 -51.9609375 109.328125 C-52.6209375 109.328125 -53.2809375 109.328125 -53.9609375 109.328125 C-54.2703125 109.946875 -54.5796875 110.565625 -54.8984375 111.203125 C-55.5859375 112.578125 -56.2734375 113.953125 -56.9609375 115.328125 C-57.6209375 115.328125 -58.2809375 115.328125 -58.9609375 115.328125 C-59.18910156 115.85535156 -59.41726563 116.38257813 -59.65234375 116.92578125 C-61.40206939 120.13796414 -63.62652928 122.91461836 -65.8984375 125.765625 C-66.38207764 126.37744629 -66.86571777 126.98926758 -67.36401367 127.61962891 C-71.5753216 132.91489442 -75.93570578 138.07346918 -80.35546875 143.1953125 C-82.84162336 146.12535562 -85.12077552 149.19043143 -87.40991211 152.27539062 C-89.95467599 155.64330731 -92.65057743 158.88457062 -95.3359375 162.140625 C-99.96237894 167.77292944 -104.34468074 173.47361837 -108.47265625 179.484375 C-108.96378906 180.0928125 -109.45492187 180.70125 -109.9609375 181.328125 C-110.6209375 181.328125 -111.2809375 181.328125 -111.9609375 181.328125 C-112.21101562 181.90046875 -112.46109375 182.4728125 -112.71875 183.0625 C-120.23603808 196.773277 -136.72981652 203.94348325 -150.9609375 208.328125 C-169.59551506 212.40598348 -188.97772454 208.41973079 -204.9609375 198.328125 C-208.27970243 195.94141132 -211.33131921 193.3112512 -214.38671875 190.59765625 C-216.58885266 188.65616945 -218.78429035 186.9701078 -221.2109375 185.328125 C-222.1184375 184.668125 -223.0259375 184.008125 -223.9609375 183.328125 C-223.9609375 182.668125 -223.9609375 182.008125 -223.9609375 181.328125 C-224.6209375 181.1321875 -225.2809375 180.93625 -225.9609375 180.734375 C-230.19559669 178.7493785 -233.41703205 175.84764058 -236.9609375 172.828125 C-238.48296738 171.55170506 -240.00641791 170.27697731 -241.53125 169.00390625 C-242.28180664 168.37693848 -243.03236328 167.7499707 -243.80566406 167.10400391 C-246.76170346 164.66831852 -249.78425615 162.32964982 -252.8359375 160.015625 C-257.66575727 156.34089224 -262.38376081 152.56162155 -267.0546875 148.6875 C-269.22009859 146.92955874 -271.39801536 145.21864957 -273.6171875 143.53125 C-274.55800171 142.81086548 -274.55800171 142.81086548 -275.51782227 142.07592773 C-276.73643543 141.14587103 -277.96058898 140.22301145 -279.19116211 139.30883789 C-284.48540857 135.25297616 -287.95023771 131.0863074 -288.9609375 124.328125 C-289.07046664 122.09168245 -289.12938203 119.85251517 -289.15380859 117.61352539 C-289.16198608 116.95919022 -289.17016357 116.30485504 -289.17858887 115.63069153 C-289.20327348 113.47906376 -289.21991092 111.32750097 -289.234375 109.17578125 C-289.23969868 108.43764128 -289.24502235 107.6995013 -289.25050735 106.93899345 C-289.2771595 103.0352673 -289.29656344 99.13157232 -289.31103516 95.2277832 C-289.32439248 92.00451393 -289.35228808 88.78187503 -289.39306641 85.55883789 C-289.44243008 81.65615802 -289.46715923 77.75405102 -289.47426224 73.85107231 C-289.48096292 72.36831837 -289.49615444 70.88557665 -289.52015305 69.40300179 C-289.71916 56.37042166 -289.71916 56.37042166 -286.63134766 52.41967773 C-283.9609375 50.328125 -283.9609375 50.328125 -280.7109375 49.578125 C-272.44009949 51.2322926 -265.71118178 57.9986561 -259.3984375 63.328125 C-254.66256744 67.30434588 -249.89273211 71.16830744 -244.92358398 74.84960938 C-241.62972644 77.33096294 -238.45822054 79.95926931 -235.2734375 82.578125 C-226.13864396 90.04455594 -216.88010888 97.34421787 -207.25390625 104.171875 C-206.61388672 104.74421875 -206.61388672 104.74421875 -205.9609375 105.328125 C-205.9609375 105.988125 -205.9609375 106.648125 -205.9609375 107.328125 C-205.22101563 107.58464844 -204.48109375 107.84117187 -203.71875 108.10546875 C-200.83519865 109.38387041 -199.12207861 110.73921844 -196.8359375 112.890625 C-191.70903783 117.58605292 -186.38821849 121.98487385 -180.9609375 126.328125 C-180.4129248 126.77043457 -179.86491211 127.21274414 -179.30029297 127.66845703 C-177.59053419 129.04394072 -175.87101448 130.40624196 -174.1484375 131.765625 C-173.6215332 132.19085449 -173.09462891 132.61608398 -172.55175781 133.05419922 C-164.73183242 139.15472776 -156.54403285 139.16099058 -146.9609375 138.328125 C-141.36845473 136.76053513 -137.83736638 133.58274206 -133.9609375 129.328125 C-132.38120355 127.76198601 -130.79757112 126.19977363 -129.2109375 124.640625 C-126.19532764 121.76773836 -126.19532764 121.76773836 -123.9609375 118.328125 C-123.3009375 118.328125 -122.6409375 118.328125 -121.9609375 118.328125 C-121.6928125 117.74546875 -121.4246875 117.1628125 -121.1484375 116.5625 C-119.94612759 114.30025899 -118.62267837 112.52236182 -116.9609375 110.578125 C-116.4453125 109.96453125 -115.9296875 109.3509375 -115.3984375 108.71875 C-113.9609375 107.328125 -113.9609375 107.328125 -111.9609375 107.328125 C-111.703125 106.75578125 -111.4453125 106.1834375 -111.1796875 105.59375 C-109.84727808 103.11683505 -108.31037632 101.1940084 -106.4609375 99.078125 C-105.8525 98.37171875 -105.2440625 97.6653125 -104.6171875 96.9375 C-102.9609375 95.328125 -102.9609375 95.328125 -100.9609375 95.328125 C-100.75210938 94.80089844 -100.54328125 94.27367187 -100.328125 93.73046875 C-98.39021103 90.32527705 -95.77899074 87.71607054 -93.0859375 84.890625 C-92.02444318 83.76843696 -90.96451837 82.64476201 -89.90625 81.51953125 C-89.40125977 80.98344238 -88.89626953 80.44735352 -88.37597656 79.89501953 C-87.08224755 78.46245348 -85.88635892 76.94307129 -84.703125 75.41796875 C-83.84074219 74.38349609 -83.84074219 74.38349609 -82.9609375 73.328125 C-82.3009375 73.328125 -81.6409375 73.328125 -80.9609375 73.328125 C-80.7340625 72.791875 -80.5071875 72.255625 -80.2734375 71.703125 C-77.41257467 66.52632559 -73.16035681 62.4298834 -68.9609375 58.328125 C-59.78993667 49.40452655 -59.78993667 49.40452655 -51.9609375 39.328125 C-51.3009375 39.328125 -50.6409375 39.328125 -49.9609375 39.328125 C-49.620625 38.52375 -49.620625 38.52375 -49.2734375 37.703125 C-47.50523661 34.50352339 -45.42423547 32.03775277 -42.9609375 29.328125 C-42.3009375 29.328125 -41.6409375 29.328125 -40.9609375 29.328125 C-40.9609375 28.668125 -40.9609375 28.008125 -40.9609375 27.328125 C-40.3009375 27.328125 -39.6409375 27.328125 -38.9609375 27.328125 C-38.58388672 26.47541016 -38.58388672 26.47541016 -38.19921875 25.60546875 C-30.7005748 11.81458729 -15.91665221 -0.24815056 0 0 Z " fill="#F8F8F8" transform="translate(434.9609375,186.671875)"/>
<path d="M0 0 C3.41283638 0.20683857 4.20408641 1.22759867 6.54296875 3.8359375 C7.43502412 5.00767144 8.31623504 6.18772557 9.1875 7.375 C9.63802734 7.96539062 10.08855469 8.55578125 10.55273438 9.1640625 C12.49677884 11.75223564 13.96998424 13.90995272 15 17 C15.66 17 16.32 17 17 17 C18.31476977 18.63753983 19.55210408 20.33762273 20.75 22.0625 C23.02610266 25.27270214 25.26450693 28.42887211 27.875 31.375 C30.80811013 34.70513333 33.53418039 38.1799302 36.25 41.6875 C36.68683105 42.24679199 37.12366211 42.80608398 37.57373047 43.38232422 C39.69862381 46.14245231 41.59924721 48.80161445 43 52 C43.66 52 44.32 52 45 52 C46.27448143 53.57365547 47.46898948 55.21237132 48.625 56.875 C53.30963306 63.47569018 58.28169395 69.78128816 63.50390625 75.96484375 C64.32761719 76.94582031 65.15132813 77.92679687 66 78.9375 C66.763125 79.83339844 67.52625 80.72929687 68.3125 81.65234375 C70 84 70 84 70 87 C70.66 87 71.32 87 72 87 C73.359375 88.57421875 73.359375 88.57421875 74.75 90.6875 C75.21921875 91.37199219 75.6884375 92.05648437 76.171875 92.76171875 C77.29651698 95.80143504 76.281078 97.12530616 75 100 C66.8722068 100.0695816 58.74453853 100.12285242 50.61652088 100.15543652 C46.84214044 100.17107711 43.06796414 100.19228561 39.29370117 100.22631836 C35.64973132 100.25896976 32.00595753 100.2768651 28.36185265 100.28463173 C26.97320152 100.29016492 25.58456084 100.30097003 24.19599342 100.31719017 C22.24771255 100.33903856 20.29923342 100.34022604 18.35083008 100.34057617 C17.2427449 100.34723801 16.13465973 100.35389984 14.99299622 100.36076355 C10.85818223 99.86236995 8.18663582 98.31492077 5.41015625 95.23828125 C4.96542969 94.60277344 4.52070313 93.96726562 4.0625 93.3125 C3.55332031 92.6009375 3.04414063 91.889375 2.51953125 91.15625 C2.01808594 90.4446875 1.51664062 89.733125 1 89 C0.08837669 87.76708824 -0.82833586 86.53792388 -1.75 85.3125 C-2.23855469 84.66152344 -2.72710937 84.01054687 -3.23046875 83.33984375 C-5.49681047 80.3430696 -7.77644523 77.35675547 -10.0625 74.375 C-10.6797998 73.56736206 -10.6797998 73.56736206 -11.30957031 72.7434082 C-13.40336011 70.01856184 -15.54498058 67.37217897 -17.80859375 64.7890625 C-20 62 -20 62 -20 59 C-20.66 59 -21.32 59 -22 59 C-23.7265625 57.1015625 -23.7265625 57.1015625 -25.625 54.625 C-26.25664062 53.81289063 -26.88828125 53.00078125 -27.5390625 52.1640625 C-29 50 -29 50 -29 48 C-29.66 48 -30.32 48 -31 48 C-32.36328125 45.484375 -32.36328125 45.484375 -33 42 C-31.50842831 39.04617878 -29.37941911 36.7101694 -27.1875 34.25 C-26.05506217 32.92266568 -24.9235091 31.59457585 -23.79296875 30.265625 C-23.2827417 29.68586914 -22.77251465 29.10611328 -22.24682617 28.50878906 C-20.90848751 27.00449714 -20.90848751 27.00449714 -20 25 C-19.34 25 -18.68 25 -18 25 C-17.75121094 24.2678125 -17.50242187 23.535625 -17.24609375 22.78125 C-15.88989392 19.75424599 -14.33340511 17.90200019 -12.0625 15.5 C-9.83067077 13.13050653 -8.02042357 11.03487189 -6.37109375 8.21875 C-5.91863281 7.4865625 -5.46617187 6.754375 -5 6 C-4.34 6 -3.68 6 -3 6 C-2.690625 5.38125 -2.38125 4.7625 -2.0625 4.125 C-1.375 2.75 -0.6875 1.375 0 0 Z " fill="#F6F6F6" transform="translate(395,288)"/>
<path d="M0 0 C2.0625 0.4375 2.0625 0.4375 4 1 C4.14695312 2.13953125 4.29390625 3.2790625 4.4453125 4.453125 C5.67541489 13.3604352 7.32095285 21.99588746 9.875 30.625 C10.22328857 31.8301123 10.22328857 31.8301123 10.57861328 33.05957031 C13.47917827 42.46543741 17.40638425 50.35099374 26.23046875 55.234375 C36.95381193 60.49059768 48.99627675 63.85661096 60.80078125 65.54296875 C63.13195554 66.02742238 64.92651215 66.8470079 67 68 C66.67 68.99 66.34 69.98 66 71 C63.25390625 71.9921875 63.25390625 71.9921875 59.5625 72.875 C58.1976718 73.21516488 56.83309925 73.55635669 55.46875 73.8984375 C54.74429688 74.07600586 54.01984375 74.25357422 53.2734375 74.43652344 C49.35604933 75.40745685 45.45828663 76.44620498 41.5625 77.5 C40.83039307 77.68933105 40.09828613 77.87866211 39.34399414 78.07373047 C29.98867121 80.60540797 21.10091731 84.87091163 15.5625 93.1484375 C10.26812033 103.10848925 6.98064083 114.26738841 5.40234375 125.390625 C4.88966263 128.71558608 4.01875919 131.79818541 3 135 C1.68 135 0.36 135 -1 135 C-1.1451001 134.26587891 -1.2902002 133.53175781 -1.43969727 132.77539062 C-6.07853451 104.74207456 -6.07853451 104.74207456 -22.9375 83.18359375 C-31.27994329 78.39616891 -40.90806457 76.75775742 -50.20727539 74.75 C-54.9124837 73.73221111 -59.46671932 72.65536882 -64 71 C-63.67 69.68 -63.34 68.36 -63 67 C-62.4423999 66.87471924 -61.8847998 66.74943848 -61.31030273 66.62036133 C-39.97046696 62.41650824 -39.97046696 62.41650824 -20.61328125 53.11328125 C-19 52 -19 52 -16.91796875 51.16796875 C-14.25883419 49.5486587 -13.96099095 47.92074105 -13 45 C-12.63261719 44.1440625 -12.26523437 43.288125 -11.88671875 42.40625 C-6.66904227 29.7614575 -3.94820664 16.33383484 -1.45385742 2.92260742 C-1 1 -1 1 0 0 Z " fill="#F4F4F4" transform="translate(400,41)"/>
<path d="M0 0 C3.66333646 0.65231023 5.53208112 1.89106505 8.46484375 4.1640625 C9.41101563 4.88980469 10.3571875 5.61554688 11.33203125 6.36328125 C14.6264994 9.02272873 17.8369334 11.75593858 21.02734375 14.5390625 C21.68734375 14.8690625 22.34734375 15.1990625 23.02734375 15.5390625 C23.02734375 16.1990625 23.02734375 16.8590625 23.02734375 17.5390625 C23.90132813 17.94705078 23.90132813 17.94705078 24.79296875 18.36328125 C27.00932642 19.52958135 28.81397885 20.80050423 30.77734375 22.3515625 C31.54433594 22.95742187 32.31132812 23.56328125 33.1015625 24.1875 C39.43311887 29.27641447 45.73440223 34.40251127 52.02734375 39.5390625 C51.66178606 44.56548072 49.04877088 46.91726914 45.52734375 50.1640625 C40.66972765 54.81389701 36.38023081 59.6547085 32.1953125 64.9296875 C29.33415326 68.37338907 26.20193349 71.47023542 22.97265625 74.56640625 C20.97253145 76.49540989 20.97253145 76.49540989 19.39453125 78.79296875 C18.94335938 79.36917969 18.4921875 79.94539063 18.02734375 80.5390625 C17.36734375 80.5390625 16.70734375 80.5390625 16.02734375 80.5390625 C15.77984375 81.0959375 15.53234375 81.6528125 15.27734375 82.2265625 C13.79809557 84.96317163 12.09266936 87.21557119 10.02734375 89.5390625 C9.36734375 89.5390625 8.70734375 89.5390625 8.02734375 89.5390625 C7.70056641 90.33570313 7.70056641 90.33570313 7.3671875 91.1484375 C5.53638937 94.41505106 3.1063747 97.04614219 0.58984375 99.7890625 C0.09935547 100.34335937 -0.39113281 100.89765625 -0.89648438 101.46875 C-2.19080671 102.88708973 -3.577088 104.22021939 -4.97265625 105.5390625 C-5.96265625 105.5390625 -6.95265625 105.5390625 -7.97265625 105.5390625 C-8.08846966 92.58713157 -8.17733121 79.63532367 -8.23171711 66.68298054 C-8.25781876 60.66875746 -8.29322817 54.65488844 -8.34985352 48.64086914 C-8.40415153 42.83776046 -8.43407251 37.03499249 -8.44704247 31.2316494 C-8.4562862 29.01681338 -8.47433703 26.80199617 -8.50130653 24.58730507 C-8.53756644 21.48658473 -8.54260274 18.38727494 -8.5402832 15.28637695 C-8.55825958 14.36927948 -8.57623596 13.45218201 -8.59475708 12.5072937 C-8.55839635 8.01974065 -8.42699159 6.13374438 -5.62297058 2.46354675 C-2.97265625 0.5390625 -2.97265625 0.5390625 0 0 Z " fill="#F8F7F7" transform="translate(344.97265625,162.4609375)"/>
<path d="M0 0 C1.89453125 0.2578125 1.89453125 0.2578125 4 1 C5.01171875 2.7421875 5.01171875 2.7421875 5.6875 4.875 C5.91824219 5.57367188 6.14898437 6.27234375 6.38671875 6.9921875 C6.58910156 7.65476562 6.79148437 8.31734375 7 9 C7.65592727 12.05490517 7.65592727 12.05490517 9.765625 13.0546875 C10.87164062 13.52261719 10.87164062 13.52261719 12 14 C12.77859375 14.35320312 13.5571875 14.70640625 14.359375 15.0703125 C15.14828125 15.41835937 15.9371875 15.76640625 16.75 16.125 C17.54921875 16.47820312 18.3484375 16.83140625 19.171875 17.1953125 C19.77515625 17.46085937 20.3784375 17.72640625 21 18 C20 21 20 21 18.07421875 22.02734375 C17.28660156 22.32769531 16.49898438 22.62804687 15.6875 22.9375 C8.54895447 25.95330958 6.1244112 30.1528861 3 37 C2.01 37 1.02 37 0 37 C-0.21914063 36.32453125 -0.43828125 35.6490625 -0.6640625 34.953125 C-2.74164447 29.10887001 -4.22590315 25.88704842 -10 23 C-11.11375 22.4225 -12.2275 21.845 -13.375 21.25 C-14.24125 20.8375 -15.1075 20.425 -16 20 C-15 17 -15 17 -13.29296875 15.97265625 C-12.59816406 15.67230469 -11.90335937 15.37195313 -11.1875 15.0625 C-6.88529291 13.00358661 -3.94637934 11.36389992 -2.09765625 6.74609375 C-1.33840397 4.51032322 -0.64088359 2.27222365 0 0 Z " fill="#E8E7E7" transform="translate(285,106)"/>
<path d="M0 0 C1.1240625 0.00128906 2.248125 0.00257813 3.40625 0.00390625 C6.72896604 0.46958994 8.12889191 1.11155587 10.5 3.4375 C12.2052766 8.41122342 12.10743393 14.28811839 10.6875 19.3125 C9.5 21.4375 9.5 21.4375 6.5 23.4375 C1.52700192 24.03025674 -3.04529359 24.10666495 -7.625 22 C-9.5 20.4375 -9.5 20.4375 -10.5 19.4375 C-10.68063984 16.98257499 -10.77801743 14.58245751 -10.8125 12.125 C-10.84150391 11.44759766 -10.87050781 10.77019531 -10.90039062 10.07226562 C-10.94227382 6.77638062 -10.71257114 4.76073167 -8.88671875 1.984375 C-5.76404202 -0.03948749 -3.70097539 -0.06366357 0 0 Z " fill="#EBEAEA" transform="translate(91.5,285.5625)"/>
<path d="M0 0 C3.25 1.625 3.25 1.625 5 5 C5.66275253 9.75721519 5.95666585 14.27857267 5 19 C2.91015625 21.44140625 2.91015625 21.44140625 0 23 C-3.48046875 23.2421875 -3.48046875 23.2421875 -7.1875 22.875 C-9.03408203 22.71644531 -9.03408203 22.71644531 -10.91796875 22.5546875 C-14 22 -14 22 -16 20 C-17.81192461 14.49453676 -17.72928417 8.8563597 -15.625 3.5 C-12.17405676 -1.80914345 -5.72734681 -0.61010352 0 0 Z " fill="#E4E2E2" transform="translate(61,309)"/>
<path d="M0 0 C2.41079658 2.32252943 2.96413571 3.76329568 3.46875 7.09375 C3.4790625 8.2178125 3.489375 9.341875 3.5 10.5 C3.5309375 11.6240625 3.561875 12.748125 3.59375 13.90625 C3 17 3 17 0.75 19.37890625 C-3.27070119 21.74906391 -6.46161867 21.70706666 -11 21 C-13.41869578 19.8410416 -15.12322096 18.87677904 -17 17 C-17.15215174 14.71187186 -17.22186492 12.41800872 -17.25 10.125 C-17.27578125 8.86945313 -17.3015625 7.61390625 -17.328125 6.3203125 C-17 3 -17 3 -15.65234375 1.1015625 C-10.96933008 -2.02044662 -5.1971844 -1.10759668 0 0 Z " fill="#F9F9F8" transform="translate(123,315)"/>
<path d="M0 0 C1.546875 -0.02900391 1.546875 -0.02900391 3.125 -0.05859375 C6 0.4375 6 0.4375 8.3515625 2.0546875 C10.52306281 5.19358606 10.46979534 7.21249513 10.375 11 C10.35566406 12.70349609 10.35566406 12.70349609 10.3359375 14.44140625 C10 17.4375 10 17.4375 8 20.4375 C5.1269465 21.3951845 3.12139007 21.63285459 0.125 21.6875 C-1.13957031 21.72617187 -1.13957031 21.72617187 -2.4296875 21.765625 C-5.76591481 21.33972364 -7.46355674 20.67422245 -10 18.4375 C-10.49783561 15.69167375 -10.65863781 13.66573521 -10.5625 10.9375 C-10.57345703 10.26074219 -10.58441406 9.58398438 -10.59570312 8.88671875 C-10.54979091 5.78305328 -10.38724466 3.89034847 -8.33984375 1.49609375 C-5.4214234 0.17573997 -3.20039006 0.00400049 0 0 Z " fill="#F0EEEE" transform="translate(136,349.5625)"/>
<path d="M0 0 C1.546875 -0.02900391 1.546875 -0.02900391 3.125 -0.05859375 C6.74382597 0.5658504 7.88754641 1.45521258 10 4.4375 C11.09176432 9.91138042 10.93363788 14.87139774 8.0625 19.6875 C3.92805014 22.05004278 0.65747469 22.23905814 -4 21.4375 C-6.41869578 20.2785416 -8.12322096 19.31427904 -10 17.4375 C-10.17840434 15.1504148 -10.26794131 12.85610008 -10.3125 10.5625 C-10.34988281 9.30695313 -10.38726562 8.05140625 -10.42578125 6.7578125 C-10 3.4375 -10 3.4375 -8.35546875 1.51953125 C-5.42724313 0.17439278 -3.21911033 0.00402389 0 0 Z " fill="#F0EEEE" transform="translate(85,333.5625)"/>
<path d="M0 0 C3 2 3 2 4.1875 5.3125 C5.78523047 9.48917585 8.48625155 10.87945125 12.35546875 12.859375 C12.89816406 13.23578125 13.44085938 13.6121875 14 14 C14 14.99 14 15.98 14 17 C12.63875 17.5878125 12.63875 17.5878125 11.25 18.1875 C6.59244951 20.78498008 4.14323323 24.17772523 2 29 C1.01 29 0.02 29 -1 29 C-1.1959375 28.46890625 -1.391875 27.9378125 -1.59375 27.390625 C-3.85858492 22.04092873 -6.04092873 19.85858492 -11.390625 17.59375 C-11.92171875 17.3978125 -12.4528125 17.201875 -13 17 C-12.68359375 15.109375 -12.68359375 15.109375 -12 13 C-6.96428571 10 -6.96428571 10 -4 10 C-3.79503906 9.36191406 -3.59007812 8.72382812 -3.37890625 8.06640625 C-3.10949219 7.24011719 -2.84007812 6.41382812 -2.5625 5.5625 C-2.16224609 4.32693359 -2.16224609 4.32693359 -1.75390625 3.06640625 C-1 1 -1 1 0 0 Z " fill="#EDECEC" transform="translate(318,66)"/>
<path d="M0 0 C2.61360243 0.82534814 3.59474722 1.47317138 5.25 3.625 C6.59892489 7.89659548 6.6044034 12.18678981 5.1875 16.4375 C4 18 4 18 1 19 C-3.5052829 19.45880176 -7.55360504 19.75763545 -11.625 17.625 C-13.80074202 13.47131069 -13.83520736 9.57516242 -13 5 C-9.41906017 -0.59521849 -6.14701088 -0.68300121 0 0 Z " fill="#F8F7F7" transform="translate(28,284)"/>
<path d="M0 0 C2.91963173 1.98783437 4.61102978 3.4314697 5.48046875 6.9375 C5.76091862 10.93959545 5.24214679 12.65814571 2.875 16 C-0.49827337 18.34662495 -1.97749297 18.59909679 -6 18 C-8.375 17 -8.375 17 -10 16 C-10 15.34 -10 14.68 -10 14 C-10.66 14 -11.32 14 -12 14 C-12.77416328 4.98529872 -12.77416328 4.98529872 -9.9375 1.375 C-6.22953601 -0.36064272 -4.05052242 -0.65097682 0 0 Z " fill="#D3D1D1" transform="translate(59,267)"/>
<path d="M0 0 C2.375 0.9375 2.375 0.9375 4 3 C5.00513662 7.25006587 5.38947148 10.83158556 4 15 C0.29046926 17.47302049 -2.69983923 17.65255358 -7 17 C-10 15.5 -10 15.5 -12 13 C-12.79190864 8.01097559 -12.80380719 6.16917409 -9.9375 2 C-6.26914026 -0.49760663 -4.35802608 -0.6338947 0 0 Z " fill="#D5D4D4" transform="translate(34,245)"/>
<path d="M0 0 C1.69167828 3.38335656 1.12870768 7.2268801 1.11352539 10.94775391 C1.11367142 11.87463516 1.11381744 12.80151642 1.1139679 13.75648499 C1.11326946 16.8298677 1.10548027 19.90319033 1.09765625 22.9765625 C1.09579182 25.10362719 1.09436804 27.2306923 1.09336853 29.35775757 C1.08954528 34.96375712 1.07971662 40.56973088 1.06866455 46.17572021 C1.0584463 51.89318493 1.05387002 57.61065379 1.04882812 63.328125 C1.0380942 74.55209468 1.02102007 85.7760452 1 97 C2.32 97.66 3.64 98.32 5 99 C3.1875 101 3.1875 101 1 103 C0.01 103 -0.98 103 -2 103 C-2.04628366 90.01344658 -2.08184899 77.0269127 -2.10362434 64.04029369 C-2.11407394 58.01047547 -2.1282546 51.98071355 -2.15087891 45.95092773 C-2.17256533 40.13489031 -2.18455977 34.31890714 -2.18975449 28.50283241 C-2.1934578 26.28080707 -2.20068917 24.05878478 -2.21146011 21.83678246 C-2.22591914 18.73121024 -2.22798028 15.62586398 -2.22705078 12.52026367 C-2.23424133 11.59597565 -2.24143188 10.67168762 -2.24884033 9.71939087 C-2.246091 8.87385147 -2.24334167 8.02831207 -2.24050903 7.15715027 C-2.24235262 6.42248126 -2.24419621 5.68781225 -2.24609566 4.93088055 C-2 3 -2 3 0 0 Z " fill="#BCB8B9" transform="translate(339,165)"/>
<path d="M0 0 C2.0625 0.4375 2.0625 0.4375 4 1 C5.51233701 7.46794133 6.21432579 13.35590042 6 20 C5.54753906 19.49855469 5.09507812 18.99710938 4.62890625 18.48046875 C4.09136719 17.99191406 3.55382812 17.50335938 3 17 C0.92638012 17.24756445 0.92638012 17.24756445 -1 18 C-1.66 18 -2.32 18 -3 18 C-2.79375 18.70125 -2.5875 19.4025 -2.375 20.125 C-1.92149643 23.60186072 -2.72459723 25.77398123 -4 29 C-4.66 29 -5.32 29 -6 29 C-5.37636227 22.55574349 -4.36209842 16.32684844 -3 10 C-2.82210938 9.14277344 -2.64421875 8.28554688 -2.4609375 7.40234375 C-1.12864688 1.12864688 -1.12864688 1.12864688 0 0 Z " fill="#CCCACA" transform="translate(400,41)"/>
<path d="M0 0 C2.375 1.625 2.375 1.625 4 4 C4.50299316 8.10777749 4.32749345 9.50875983 2 13 C-1.16912098 13.89562115 -3.17702854 14.28915213 -6.3125 13.1875 C-8 12 -8 12 -9 10 C-9.4524237 3.77917415 -9.4524237 3.77917415 -7.875 1.0625 C-5.06487736 -0.52990283 -3.17235276 -0.45319325 0 0 Z " fill="#CAC8C7" transform="translate(45,354)"/>
<path d="M0 0 C2 1.5625 2 1.5625 3 4 C2.67272727 10.32727273 2.67272727 10.32727273 0 13 C-5.95169082 13.5410628 -5.95169082 13.5410628 -8.9375 12 C-10.74093769 8.60529375 -10.36262436 5.80755575 -10 2 C-6.29584707 -0.46943529 -4.37855495 -0.46913089 0 0 Z " fill="#D5D3D4" transform="translate(72,373)"/>
<path d="M0 0 C3.0625 0.5 3.0625 0.5 5.5 2.0625 C7.0625 4.5 7.0625 4.5 7 8.125 C6.0625 11.5 6.0625 11.5 3.0625 13.5 C-0.05776907 13.82502803 -2.08497535 14.01151479 -4.8125 12.375 C-6.47327671 9.60703881 -6.32555206 7.66909182 -5.9375 4.5 C-4.37581884 1.20311756 -3.62602767 0.6171962 0 0 Z " fill="#EBE9E8" transform="translate(104.9375,370.5)"/>
<path d="M0 0 C1.890625 0.2578125 1.890625 0.2578125 4 1 C5.046875 2.7421875 5.046875 2.7421875 5.75 4.875 C6.11351562 5.92300781 6.11351562 5.92300781 6.484375 6.9921875 C7 9 7 9 7 12 C5.68 11.01 4.36 10.02 3 9 C2.67 9.99 2.34 10.98 2 12 C-0.1875 13 -0.1875 13 -3 14 C-4.051875 14.53625 -5.10375 15.0725 -6.1875 15.625 C-9 17 -9 17 -11 17 C-11 18.32 -11 19.64 -11 21 C-10.01 21.33 -9.02 21.66 -8 22 C-8.66 22.33 -9.32 22.66 -10 23 C-12.03144641 22.06553465 -14.03533587 21.06775224 -16 20 C-15 17 -15 17 -13.29296875 15.97265625 C-12.59816406 15.67230469 -11.90335937 15.37195313 -11.1875 15.0625 C-6.88529291 13.00358661 -3.94637934 11.36389992 -2.09765625 6.74609375 C-1.33840397 4.51032322 -0.64088359 2.27222365 0 0 Z " fill="#BDBABB" transform="translate(285,106)"/>
<path d="M0 0 C3.5625 0.375 3.5625 0.375 5.5625 2.0625 C6.84987047 5.0395442 6.72236213 6.35935845 5.5625 9.375 C3.875 11.3125 3.875 11.3125 1.5625 12.375 C-3.66826923 11.14423077 -3.66826923 11.14423077 -5.4375 9.375 C-5.625 5.9375 -5.625 5.9375 -5.4375 2.375 C-3.4375 0.375 -3.4375 0.375 0 0 Z " fill="#D7D5D5" transform="translate(22.4375,331.625)"/>
<path d="M0 0 C2 2 2 2 2.3125 4.9375 C2 8 2 8 0.9375 9.9375 C-2.15212727 11.63181173 -4.67217418 10.73951685 -8 10 C-9 9 -9 9 -9.25 5.625 C-9 2 -9 2 -7.875 0 C-5.01126853 -1.52732345 -3.04699809 -0.84278671 0 0 Z " fill="#E4E1E0" transform="translate(170,373)"/>
<path d="M0 0 C0.83683319 -0.00095673 1.67366638 -0.00191345 2.53585815 -0.00289917 C4.3027148 -0.00357923 6.06957395 -0.00173707 7.83642578 0.00244141 C10.55116327 0.00780554 13.26573632 0.00248367 15.98046875 -0.00390625 C17.69531287 -0.0032457 19.41015688 -0.00196502 21.125 0 C21.94163116 -0.00202423 22.75826233 -0.00404846 23.59963989 -0.00613403 C29.31472786 0.01785286 29.31472786 0.01785286 30.4296875 1.1328125 C30.1171875 4.6328125 30.1171875 4.6328125 29.4296875 8.1328125 C28.7696875 8.4628125 28.1096875 8.7928125 27.4296875 9.1328125 C27.4296875 8.4728125 27.4296875 7.8128125 27.4296875 7.1328125 C26.7696875 6.8028125 26.1096875 6.4728125 25.4296875 6.1328125 C26.0896875 6.1328125 26.7496875 6.1328125 27.4296875 6.1328125 C28.0896875 4.8128125 28.7496875 3.4928125 29.4296875 2.1328125 C28.92228027 2.30103516 28.41487305 2.46925781 27.89208984 2.64257812 C24.58173515 3.30162951 21.3816018 3.12470445 18.03125 2.9765625 C16.96238052 2.9375885 16.96238052 2.9375885 15.87191772 2.89782715 C12.83482876 2.78700237 9.79831454 2.66305798 6.76171875 2.53955078 C4.53922076 2.45109077 2.31653648 2.36989452 0.09375 2.2890625 C-0.58456879 2.25889038 -1.26288757 2.22871826 -1.96176147 2.19763184 C-5.96952473 2.05322591 -9.64044908 2.3381626 -13.5703125 3.1328125 C-9.70891508 -0.72858492 -5.11620431 -0.01274502 0 0 Z " fill="#B2B0B0" transform="translate(434.5703125,186.8671875)"/>
<path d="M0 0 C2.4375 0.6875 2.4375 0.6875 4.4375 1.6875 C4.5625 5.0625 4.5625 5.0625 4.4375 8.6875 C2.4375 10.6875 2.4375 10.6875 -0.5 11.125 C-3.5625 10.6875 -3.5625 10.6875 -5.5 8.4375 C-6.5625 5.6875 -6.5625 5.6875 -6.4375 3.5 C-4.95479359 0.42867957 -3.32030196 -0.40491487 0 0 Z " fill="#BCBAB9" transform="translate(133.5625,392.3125)"/>
<path d="M0 0 C6.875 0.875 6.875 0.875 8 2 C8.45691383 7.25450902 8.45691383 7.25450902 6.8125 9.9375 C5 11 5 11 2.4375 10.75 C0 10 0 10 -2 9 C-2.8125 7.25 -2.8125 7.25 -3 5 C-1.5625 2.25 -1.5625 2.25 0 0 Z " fill="#CAC8C9" transform="translate(87,397)"/>
<path d="M0 0 C1.04285156 0.00386719 2.08570312 0.00773437 3.16015625 0.01171875 C5.9375 0.3125 5.9375 0.3125 8.9375 2.3125 C8.6075 2.9725 8.2775 3.6325 7.9375 4.3125 C7.4425 4.168125 6.9475 4.02375 6.4375 3.875 C2.88073152 3.07472709 -0.40735723 2.54457256 -4.0625 2.3125 C-5.94055099 3.38303112 -5.94055099 3.38303112 -7.0625 5.3125 C-7.20884071 7.83907767 -7.20884071 7.83907767 -6.75 10.5 C-6.63011719 11.40105469 -6.51023437 12.30210937 -6.38671875 13.23046875 C-6.27972656 13.91753906 -6.17273438 14.60460937 -6.0625 15.3125 C-6.7225 15.3125 -7.3825 15.3125 -8.0625 15.3125 C-8.3925 16.3025 -8.7225 17.2925 -9.0625 18.3125 C-10.99990653 16.37509347 -10.3250055 13.01090128 -10.375 10.4375 C-10.41238281 9.18195313 -10.44976562 7.92640625 -10.48828125 6.6328125 C-10.0625 3.3125 -10.0625 3.3125 -8.421875 1.38671875 C-5.46034567 0.03834033 -3.247774 -0.05231854 0 0 Z " fill="#C8C6C7" transform="translate(85.0625,333.6875)"/>
<path d="M0 0 C0.66 1.32 1.32 2.64 2 4 C1.2575 4.226875 0.515 4.45375 -0.25 4.6875 C-3.56311379 6.26875885 -4.83619823 8.06839761 -7 11 C-9.26954343 13.40709152 -11.23176218 15.15450812 -14 17 C-14.33 17.99 -14.66 18.98 -15 20 C-19.88269795 25.54252199 -19.88269795 25.54252199 -24 26 C-24 25.34 -24 24.68 -24 24 C-23.34 24 -22.68 24 -22 24 C-22 23.34 -22 22.68 -22 22 C-21.34 22 -20.68 22 -20 22 C-19.62294922 21.14728516 -19.62294922 21.14728516 -19.23828125 20.27734375 C-14.95014506 12.39096079 -7.02524248 5.41947277 0 0 Z " fill="#B2B0B0" transform="translate(416,192)"/>
<path d="M0 0 C0.33 0 0.66 0 1 0 C2.50258897 6.0103559 3.11024563 12.43429729 0 18 C-3.34048103 20.22698735 -4.53285581 20.2711921 -8.4375 20.25 C-9.38496094 20.25515625 -10.33242187 20.2603125 -11.30859375 20.265625 C-14.02552453 19.99748089 -15.67465583 19.38531142 -18 18 C-14.55464976 16.27732488 -10.6359885 17.04507933 -6.84765625 17.16015625 C-3.79554586 17.22993839 -3.79554586 17.22993839 -1 15 C-0.61588725 12.390379 -0.39706803 9.9941926 -0.3125 7.375 C-0.27833984 6.66859375 -0.24417969 5.9621875 -0.20898438 5.234375 C-0.12648692 3.49014312 -0.06156665 1.74509605 0 0 Z " fill="#A19595" transform="translate(101,289)"/>
<path d="M0 0 C1.30076135 3.90228404 0.3031487 5.0905539 -1 9 C-1.35927167 10.97462292 -1.69015934 12.95451978 -2 14.9375 C-2.70573845 19.43518235 -3.62069733 23.66504874 -5 28 C-6.32 28 -7.64 28 -9 28 C-9.33 26.02 -9.66 24.04 -10 22 C-9.34 22 -8.68 22 -8 22 C-8 23.65 -8 25.3 -8 27 C-7.34 27 -6.68 27 -6 27 C-4.96973056 20.30324864 -4.89847201 13.7685324 -5 7 C-4.01 6.67 -3.02 6.34 -2 6 C-0.77479736 2.99152582 -0.77479736 2.99152582 0 0 Z " fill="#949190" transform="translate(408,148)"/>
<path d="M0 0 C0.66 0.33 1.32 0.66 2 1 C0.625 3.5 0.625 3.5 -1 6 C-1.66 6 -2.32 6 -3 6 C-2.67 6.99 -2.34 7.98 -2 9 C-2.99 9.33 -3.98 9.66 -5 10 C-5 10.66 -5 11.32 -5 12 C-6.32 12 -7.64 12 -9 12 C-9.28875 12.94875 -9.5775 13.8975 -9.875 14.875 C-11 18 -11 18 -13 20 C-13.66 20 -14.32 20 -15 20 C-16.34882408 20.63474075 -17.6846659 21.29848848 -19 22 C-18.60167969 21.54109375 -18.20335937 21.0821875 -17.79296875 20.609375 C-14.39984291 16.68325173 -14.39984291 16.68325173 -11.25 12.5625 C-10.8375 12.046875 -10.425 11.53125 -10 11 C-9.34 11 -8.68 11 -8 11 C-7.73445313 10.41734375 -7.46890625 9.8346875 -7.1953125 9.234375 C-5.96697004 6.93825772 -4.59685061 5.19643982 -2.875 3.25 C-2.33617187 2.63640625 -1.79734375 2.0228125 -1.2421875 1.390625 C-0.83226562 0.93171875 -0.42234375 0.4728125 0 0 Z " fill="#B3B1B1" transform="translate(321,294)"/>
<path d="M0 0 C2.6875 0.875 2.6875 0.875 5 2 C5.125 4.375 5.125 4.375 5 7 C4.34 7.66 3.68 8.32 3 9 C-1.55555556 8.44444444 -1.55555556 8.44444444 -3 7 C-3.25 4.5625 -3.25 4.5625 -3 2 C-2.01 1.34 -1.02 0.68 0 0 Z " fill="#979494" transform="translate(189,394)"/>
<path d="M0 0 C3.77961211 2.5197414 4.3659048 4.84048495 6 9 C6.33 9.66 6.66 10.32 7 11 C5.02 11.33 3.04 11.66 1 12 C-0.04449911 8.86650268 0.06576355 8.01031744 1 5 C0.01 5.495 0.01 5.495 -1 6 C-1.65555119 8.52733235 -1.65555119 8.52733235 -2 11 C-3.32 10.67 -4.64 10.34 -6 10 C-5.34 10 -4.68 10 -4 10 C-3.79503906 9.36191406 -3.59007812 8.72382812 -3.37890625 8.06640625 C-3.10949219 7.24011719 -2.84007812 6.41382812 -2.5625 5.5625 C-2.29566406 4.73878906 -2.02882813 3.91507812 -1.75390625 3.06640625 C-1 1 -1 1 0 0 Z " fill="#B4B1B2" transform="translate(318,66)"/>
<path d="M0 0 C3.125 0.375 3.125 0.375 6 1 C6 2.32 6 3.64 6 5 C4.0636296 5.50435694 2.12585854 6.00333874 0.1875 6.5 C-0.89144531 6.7784375 -1.97039062 7.056875 -3.08203125 7.34375 C-6 8 -6 8 -9 8 C-8.67 7.01 -8.34 6.02 -8 5 C-6.35 5 -4.7 5 -3 5 C-2.67 4.01 -2.34 3.02 -2 2 C-1.34 1.34 -0.68 0.68 0 0 Z " fill="#C0BCBC" transform="translate(460,107)"/>
<path d="M0 0 C3.51903714 -0.31991247 5.42015168 -0.37169764 8.4375 1.5625 C10 4 10 4 9.9375 7.625 C9 11 9 11 6 13 C2.9375 13.3125 2.9375 13.3125 0 13 C-0.66 12.01 -1.32 11.02 -2 10 C0.97 10.33 3.94 10.66 7 11 C7 8.69 7 6.38 7 4 C6.401875 3.896875 5.80375 3.79375 5.1875 3.6875 C2.71756736 2.91123545 1.67748765 1.92911079 0 0 Z " fill="#A5A3A1" transform="translate(102,371)"/>
<path d="M0 0 C2 2 2 2 2.25 5.875 C2.16399791 9.03414327 1.96903747 11.40916123 0 14 C-2.94229921 14.9807664 -4.9908784 15.16488128 -8.0625 15.1875 C-9.37927734 15.20876953 -9.37927734 15.20876953 -10.72265625 15.23046875 C-13 15 -13 15 -15 13 C-11.7 13.33 -8.4 13.66 -5 14 C-4.34 12.35 -3.68 10.7 -3 9 C-2.34 9 -1.68 9 -1 9 C-0.67 6.03 -0.34 3.06 0 0 Z " fill="#9D9B9B" transform="translate(32,288)"/>
<path d="M0 0 C1.91541138 -0.10841951 3.83259773 -0.18578079 5.75 -0.25 C6.81734375 -0.29640625 7.8846875 -0.3428125 8.984375 -0.390625 C12 0 12 0 14.3671875 1.60546875 C16.5133149 4.75277998 16.46964334 6.78106829 16.375 10.5625 C16.35566406 12.26599609 16.35566406 12.26599609 16.3359375 14.00390625 C16 17 16 17 14 20 C13.34 20 12.68 20 12 20 C12 19.01 12 18.02 12 17 C12.66 17 13.32 17 14 17 C14 13.04 14 9.08 14 5 C13.01 5 12.02 5 11 5 C11 4.34 11 3.68 11 3 C8.70370006 1.85185003 6.92301914 1.69230191 4.375 1.4375 C3.55773437 1.35371094 2.74046875 1.26992188 1.8984375 1.18359375 C1.27195313 1.12300781 0.64546875 1.06242187 0 1 C0 0.67 0 0.34 0 0 Z " fill="#A7A4A3" transform="translate(130,350)"/>
<path d="M0 0 C0.33 0 0.66 0 1 0 C1.13536022 2.08153935 1.23215465 4.16561206 1.3125 6.25 C1.37050781 7.41015625 1.42851563 8.5703125 1.48828125 9.765625 C1 13 1 13 -1.23046875 15.3984375 C-4.05518412 17.03191183 -5.41838248 17.49621235 -8.625 17.375 C-9.75808594 17.35566406 -9.75808594 17.35566406 -10.9140625 17.3359375 C-13 17 -13 17 -16 15 C-11.71 15 -7.42 15 -3 15 C-3.33 14.01 -3.66 13.02 -4 12 C-3.51917969 11.60167969 -3.03835937 11.20335937 -2.54296875 10.79296875 C-0.62608175 8.56549753 -0.52258357 7.21165331 -0.3125 4.3125 C-0.24675781 3.50425781 -0.18101563 2.69601562 -0.11328125 1.86328125 C-0.07589844 1.24839844 -0.03851563 0.63351562 0 0 Z " fill="#898789" transform="translate(125,319)"/>
<path d="M0 0 C0.66 0.66 1.32 1.32 2 2 C1.30132812 2.13277344 0.60265625 2.26554687 -0.1171875 2.40234375 C-1.02726562 2.57894531 -1.93734375 2.75554687 -2.875 2.9375 C-3.77992187 3.11152344 -4.68484375 3.28554688 -5.6171875 3.46484375 C-7.99956317 3.89963701 -7.99956317 3.89963701 -10 5 C-10.68931344 7.34907875 -10.68931344 7.34907875 -11.125 10.0625 C-11.29257812 10.98160156 -11.46015625 11.90070313 -11.6328125 12.84765625 C-11.75398438 13.55792969 -11.87515625 14.26820313 -12 15 C-12.33 15 -12.66 15 -13 15 C-13.76882007 6.20128137 -13.76882007 6.20128137 -11 1.875 C-6.91068873 -0.68081954 -4.7622893 -0.54649221 0 0 Z " fill="#858382" transform="translate(28,284)"/>
<path d="M0 0 C2 1 2 1 2 1 Z M1 2 C1.33 2.66 1.66 3.32 2 4 C2.78375 4.144375 3.5675 4.28875 4.375 4.4375 C7.30800143 5.06600031 8.03748822 5.84812304 10 8 C3.64549677 6.75297849 -2.68327435 5.42635741 -9 4 C-9 3.67 -9 3.34 -9 3 C-2.375 0.875 -2.375 0.875 1 2 Z " fill="#B5B2B2" transform="translate(348,109)"/>
<path d="M0 0 C0.33 0.66 0.66 1.32 1 2 C-0.12047806 5.36143418 -1.49707183 6.57528834 -4 9 C-4.33 9.66 -4.66 10.32 -5 11 C-5.66 11 -6.32 11 -7 11 C-7.33 11.99 -7.66 12.98 -8 14 C-9.32 13.67 -10.64 13.34 -12 13 C-11.04882866 11.8274869 -10.08882991 10.66212985 -9.125 9.5 C-8.59132813 8.8503125 -8.05765625 8.200625 -7.5078125 7.53125 C-7.01023437 7.0259375 -6.51265625 6.520625 -6 6 C-5.34 6 -4.68 6 -4 6 C-3.566875 5.071875 -3.566875 5.071875 -3.125 4.125 C-2 2 -2 2 0 0 Z " fill="#C2C1C1" transform="translate(389,220)"/>
<path d="M0 0 C0 0.33 0 0.66 0 1 C-1.98 1.33 -3.96 1.66 -6 2 C-6 3.98 -6 5.96 -6 8 C-3.525 8.99 -3.525 8.99 -1 10 C-1 10.33 -1 10.66 -1 11 C-7.875 10.125 -7.875 10.125 -9 9 C-9.45818182 2.81454545 -9.45818182 2.81454545 -7.875 0 C-5.06863762 -1.49672661 -2.99840718 -0.73294398 0 0 Z " fill="#A19E9D" transform="translate(170,373)"/>
<path d="M0 0 C0.66 0 1.32 0 2 0 C2.1953125 2.05078125 2.390625 4.1015625 2.5859375 6.15234375 C2.72257812 6.76207031 2.85921875 7.37179688 3 8 C3.66 8.33 4.32 8.66 5 9 C5.66666667 11 6.33333333 13 7 15 C6.67 15.66 6.34 16.32 6 17 C5.34 17 4.68 17 4 17 C4 15.35 4 13.7 4 12 C3.34 12 2.68 12 2 12 C0.40861915 7.82262526 -0.21278058 4.46839215 0 0 Z " fill="#C4C0C1" transform="translate(396,158)"/>
<path d="M0 0 C5.61 0.33 11.22 0.66 17 1 C17.33 1.66 17.66 2.32 18 3 C16.98679688 2.96519531 15.97359375 2.93039063 14.9296875 2.89453125 C13.5781417 2.86637405 12.22657781 2.83907597 10.875 2.8125 C10.20984375 2.78736328 9.5446875 2.76222656 8.859375 2.73632812 C4.09648858 2.66628568 1.09516 3.64379925 -3 6 C-3.99 6.33 -4.98 6.66 -6 7 C-5.67 5.35 -5.34 3.7 -5 2 C-3.35 2.33 -1.7 2.66 0 3 C0 2.01 0 1.02 0 0 Z " fill="#8C8A8A" transform="translate(114,158)"/>
<path d="M0 0 C1.9375 0.3125 1.9375 0.3125 4 1 C4.33 1.99 4.66 2.98 5 4 C4.21625 4.28875 3.4325 4.5775 2.625 4.875 C-0.09671632 5.84912254 -0.09671632 5.84912254 -2 8 C-2.99 8 -3.98 8 -5 8 C-5 7.34 -5 6.68 -5 6 C-4.34 6 -3.68 6 -3 6 C-2.690625 5.38125 -2.38125 4.7625 -2.0625 4.125 C-1.375 2.75 -0.6875 1.375 0 0 Z " fill="#B9B8B7" transform="translate(395,288)"/>
<path d="M0 0 C0 0.99 0 1.98 0 3 C-1.32 3.33 -2.64 3.66 -4 4 C-4 5.32 -4 6.64 -4 8 C-3.01 8.33 -2.02 8.66 -1 9 C-1.99 9.495 -1.99 9.495 -3 10 C-5.03144641 9.06553465 -7.03533587 8.06775224 -9 7 C-8 4 -8 4 -6.15234375 2.83203125 C-5.42144531 2.49558594 -4.69054687 2.15914063 -3.9375 1.8125 C-3.20402344 1.46832031 -2.47054688 1.12414062 -1.71484375 0.76953125 C-1.14894531 0.51558594 -0.58304687 0.26164062 0 0 Z " fill="#A4A2A2" transform="translate(278,119)"/>
<path d="M0 0 C0.66 0.33 1.32 0.66 2 1 C1.67 2.32 1.34 3.64 1 5 C1.66 5.33 2.32 5.66 3 6 C3 6.99 3 7.98 3 9 C-2.75 7.125 -2.75 7.125 -5 6 C-4.75 4.125 -4.75 4.125 -4 2 C-2.0625 0.6875 -2.0625 0.6875 0 0 Z " fill="#A39FA0" transform="translate(310,77)"/>
<path d="M0 0 C0.33 0 0.66 0 1 0 C1.13526616 2.5850867 1.23417653 5.16308752 1.3125 7.75 C1.35439453 8.47960937 1.39628906 9.20921875 1.43945312 9.9609375 C1.48828125 12.109375 1.48828125 12.109375 1 16 C-1.51953125 18.515625 -1.51953125 18.515625 -4 20 C-4.33 19.01 -4.66 18.02 -5 17 C-4.01 17 -3.02 17 -2 17 C-2 16.01 -2 15.02 -2 14 C-1.34 14 -0.68 14 0 14 C-0.66 12.35 -1.32 10.7 -2 9 C-1.67 8.67 -1.34 8.34 -1 8 C-0.76924918 6.65252916 -0.58846937 5.29622435 -0.4375 3.9375 C-0.293125 2.638125 -0.14875 1.33875 0 0 Z " fill="#D0CFCE" transform="translate(309,264)"/>
<path d="M0 0 C0.33 1.65 0.66 3.3 1 5 C2.65 5 4.3 5 6 5 C6.33 6.65 6.66 8.3 7 10 C-2.59453303 3.84965831 -2.59453303 3.84965831 -6 0 C-3 -1 -3 -1 0 0 Z " fill="#A4A3A2" transform="translate(250,245)"/>
<path d="M0 0 C0.33 0 0.66 0 1 0 C1.3690205 12.66970387 1.3690205 12.66970387 -1 18 C-1.66 18 -2.32 18 -3 18 C-2.41509121 11.85845775 -1.45933748 5.99320151 0 0 Z " fill="#9B9A9B" transform="translate(397,52)"/>
<path d="M0 0 C-0.33 0.66 -0.66 1.32 -1 2 C-3.06640625 2.4140625 -3.06640625 2.4140625 -5.5625 2.625 C-6.38878906 2.69976562 -7.21507813 2.77453125 -8.06640625 2.8515625 C-9.02353516 2.92503906 -9.02353516 2.92503906 -10 3 C-10 3.66 -10 4.32 -10 5 C-12.64 5 -15.28 5 -18 5 C-12.72807643 0.36070726 -6.81560969 -0.27818815 0 0 Z " fill="#B0ADAF" transform="translate(105,85)"/>
<path d="M0 0 C0.33 0 0.66 0 1 0 C1.125 3.375 1.125 3.375 1 7 C-1 9 -1 9 -4.125 9.125 C-5.548125 9.063125 -5.548125 9.063125 -7 9 C-7.33 8.34 -7.66 7.68 -8 7 C-7.236875 6.773125 -6.47375 6.54625 -5.6875 6.3125 C-2.44700291 4.72993166 -1.64845477 3.13206406 0 0 Z " fill="#A9A6A6" transform="translate(137,394)"/>
<path d="M0 0 C0.33 0.66 0.66 1.32 1 2 C-2.96 2 -6.92 2 -11 2 C-11.33 2.66 -11.66 3.32 -12 4 C-13.32 3.67 -14.64 3.34 -16 3 C-16 2.34 -16 1.68 -16 1 C-10.14205483 -0.77830479 -6.0204673 -1.2674668 0 0 Z " fill="#A09F9E" transform="translate(123,315)"/>
<path d="M0 0 C1.32 0 2.64 0 4 0 C4 0.66 4 1.32 4 2 C5.32 1.67 6.64 1.34 8 1 C8 2.32 8 3.64 8 5 C8.99 5 9.98 5 11 5 C11.33 6.32 11.66 7.64 12 9 C8.98472262 7.59422879 6.4052059 5.93873852 3.75 3.9375 C3.04359375 3.41027344 2.3371875 2.88304687 1.609375 2.33984375 C1.07828125 1.89769531 0.5471875 1.45554687 0 1 C0 0.67 0 0.34 0 0 Z " fill="#A19F9F" transform="translate(271,266)"/>
<path d="M0 0 C1.32 0.33 2.64 0.66 4 1 C3.34 1 2.68 1 2 1 C1.773125 1.53625 1.54625 2.0725 1.3125 2.625 C-0.43382056 5.78500863 -2.6402849 8.2676983 -5 11 C-5.66 9.68 -6.32 8.36 -7 7 C-5.47005208 5.76302083 -3.94010417 4.52604167 -2.41015625 3.2890625 C-0.86733563 2.0333609 -0.86733563 2.0333609 0 0 Z " fill="#BDBBBC" transform="translate(351,251)"/>
<path d="M0 0 C1.32 0.33 2.64 0.66 4 1 C3.67 1.33 3.34 1.66 3 2 C4.32 2 5.64 2 7 2 C6.67 3.65 6.34 5.3 6 7 C4.68 7.33 3.36 7.66 2 8 C1.34 5.36 0.68 2.72 0 0 Z " fill="#B0ADAE" transform="translate(283,135)"/>
<path d="M0 0 C4.81033104 2.54664585 8.32442148 4.99027798 12 9 C11.34 9 10.68 9 10 9 C9.67 9.66 9.34 10.32 9 11 C8.6596875 9.7934375 8.6596875 9.7934375 8.3125 8.5625 C7.879375 7.716875 7.44625 6.87125 7 6 C4.45224694 5.10613836 4.45224694 5.10613836 2 5 C2 4.01 2 3.02 2 2 C1.34 2 0.68 2 0 2 C0 1.34 0 0.68 0 0 Z " fill="#B3B2B1" transform="translate(175,101)"/>
<path d="M0 0 C0.99 0.66 1.98 1.32 3 2 C1.02 4.64 -0.96 7.28 -3 10 C-5 7 -5 7 -5 5 C-3.37446717 3.29319053 -1.70884005 1.62339805 0 0 Z " fill="#CAC7C8" transform="translate(342,340)"/>
<path d="M0 0 C0.99 0.495 0.99 0.495 2 1 C2 1.99 2 2.98 2 4 C3.32 4.66 4.64 5.32 6 6 C4.6875 7.5 4.6875 7.5 3 9 C2.01 9 1.02 9 0 9 C0 6.03 0 3.06 0 0 Z " fill="#D8D6D7" transform="translate(338,258)"/>
<path d="M0 0 C0.66 0.33 1.32 0.66 2 1 C1.34 2.32 0.68 3.64 0 5 C-0.66 5 -1.32 5 -2 5 C-2.061875 5.61875 -2.12375 6.2375 -2.1875 6.875 C-3 9 -3 9 -5.5625 10.25 C-6.366875 10.4975 -7.17125 10.745 -8 11 C-6.16749123 7.8585564 -4.36301977 4.77397973 -2 2 C-1.34 2 -0.68 2 0 2 C0 1.34 0 0.68 0 0 Z " fill="#B2ACAE" transform="translate(58,106)"/>
<path d="M0 0 C1.670625 0.061875 1.670625 0.061875 3.375 0.125 C3.375 0.455 3.375 0.785 3.375 1.125 C1.395 1.455 -0.585 1.785 -2.625 2.125 C-2.58375 3.07375 -2.5425 4.0225 -2.5 5 C-2.625 8.125 -2.625 8.125 -4.625 10.125 C-5.625 9.125 -5.625 9.125 -5.8125 5.6875 C-5.55408081 0.77753534 -4.91598639 0.16951677 0 0 Z " fill="#B7B5B6" transform="translate(22.625,331.875)"/>
<path d="M0 0 C2.375 0.3125 2.375 0.3125 5 1 C5.66 1.99 6.32 2.98 7 4 C9.05925139 4.72382467 9.05925139 4.72382467 11 5 C11.33 6.32 11.66 7.64 12 9 C8.98472262 7.59422879 6.4052059 5.93873852 3.75 3.9375 C3.04359375 3.41027344 2.3371875 2.88304687 1.609375 2.33984375 C1.07828125 1.89769531 0.5471875 1.45554688 0 1 C0 0.67 0 0.34 0 0 Z " fill="#A2A0A1" transform="translate(193,205)"/>
<path d="M0 0 C1.93719378 -0.05406122 3.87481921 -0.09282025 5.8125 -0.125 C6.89144531 -0.14820313 7.97039062 -0.17140625 9.08203125 -0.1953125 C12 0 12 0 15 2 C14.67 2.66 14.34 3.32 14 4 C13.44828125 3.85691406 12.8965625 3.71382813 12.328125 3.56640625 C9.81285231 2.9544691 7.28957492 2.43873189 4.75 1.9375 C3.85796875 1.76089844 2.9659375 1.58429688 2.046875 1.40234375 C1.37140625 1.26957031 0.6959375 1.13679688 0 1 C0 0.67 0 0.34 0 0 Z " fill="#918B8D" transform="translate(79,334)"/>
<path d="M0 0 C0.66 0.33 1.32 0.66 2 1 C0.68 3.64 -0.64 6.28 -2 9 C-2.99 9 -3.98 9 -5 9 C-7.15028304 9.94978897 -7.15028304 9.94978897 -9 11 C-8.60167969 10.54109375 -8.20335937 10.0821875 -7.79296875 9.609375 C-5.08857938 6.47728415 -2.42008229 3.36122541 0 0 Z " fill="#ABA5A5" transform="translate(311,305)"/>
<path d="M0 0 C1.32 0.99 2.64 1.98 4 3 C3.6875 5.375 3.6875 5.375 3 8 C2.01 8.66 1.02 9.32 0 10 C-1.231394 6.30581799 -0.64432764 3.7943739 0 0 Z " fill="#ADACAB" transform="translate(393,199)"/>
<path d="M0 0 C3.98381075 2.16264012 6.88983545 4.71211176 10 8 C8.35 8.33 6.7 8.66 5 9 C2 4.25 2 4.25 2 2 C1.34 2 0.68 2 0 2 C0 1.34 0 0.68 0 0 Z " fill="#BAB8B5" transform="translate(381,190)"/>
<path d="M0 0 C1.32 0.66 2.64 1.32 4 2 C3.401875 2.7425 2.80375 3.485 2.1875 4.25 C0.41826778 6.47417764 -1.30860915 8.71662235 -3 11 C-3.33 9.35 -3.66 7.7 -4 6 C-3.01 6 -2.02 6 -1 6 C-1.33 5.01 -1.66 4.02 -2 3 C-1.34 2.01 -0.68 1.02 0 0 Z " fill="#AFAEAF" transform="translate(416,127)"/>
<path d="M0 0 C1.27310312 0.93441535 2.543388 1.87267111 3.8125 2.8125 C4.52019531 3.33457031 5.22789062 3.85664062 5.95703125 4.39453125 C7.78531393 5.83128877 9.39896688 7.31815763 11 9 C9.35 8.67 7.7 8.34 6 8 C6 7.34 6 6.68 6 6 C5.030625 5.71125 4.06125 5.4225 3.0625 5.125 C0 4 0 4 -1 2 C-0.67 1.34 -0.34 0.68 0 0 Z " fill="#AFAFAE" transform="translate(190,112)"/>
<path d="M0 0 C1.65 0.33 3.3 0.66 5 1 C4 3 4 3 2.0390625 3.88671875 C1.24242187 4.15097656 0.44578125 4.41523438 -0.375 4.6875 C-1.16648437 4.95949219 -1.95796875 5.23148437 -2.7734375 5.51171875 C-5 6 -5 6 -8 5 C-7.34 5 -6.68 5 -6 5 C-6 4.34 -6 3.68 -6 3 C-4.35 3 -2.7 3 -1 3 C-0.67 2.01 -0.34 1.02 0 0 Z " fill="#A6A4A4" transform="translate(292,388)"/>
<path d="M0 0 C0.99 0.33 1.98 0.66 3 1 C0.03 4.96 0.03 4.96 -3 9 C-4 5 -4 5 -3 2 C-2.01 1.34 -1.02 0.68 0 0 Z " fill="#B9B8B7" transform="translate(334,351)"/>
<path d="M0 0 C1.515625 1.83984375 1.515625 1.83984375 3 4 C2.71814575 6.88900605 1.91884332 9.24347003 1 12 C1.66 12.33 2.32 12.66 3 13 C2.34 13.66 1.68 14.32 1 15 C0 14 0 14 -0.09765625 10.83984375 C-0.08025391 8.90818359 -0.08025391 8.90818359 -0.0625 6.9375 C-0.05347656 5.64714844 -0.04445313 4.35679687 -0.03515625 3.02734375 C-0.02355469 2.02832031 -0.01195313 1.02929688 0 0 Z " fill="#A7A5A6" transform="translate(106,318)"/>
<path d="M0 0 C1.07310858 3.27185553 0.89263102 5.42947592 0.0625 8.75 C-0.22947266 9.94882813 -0.22947266 9.94882813 -0.52734375 11.171875 C-0.68332031 11.77515625 -0.83929688 12.3784375 -1 13 C-1.66 13 -2.32 13 -3 13 C-2.45144652 8.428721 -1.58255197 4.32564205 0 0 Z " fill="#9E9A9C" transform="translate(38,136)"/>
<path d="M0 0 C0.33 0.99 0.66 1.98 1 3 C0.01 4.485 0.01 4.485 -1 6 C-1.66 6 -2.32 6 -3 6 C-3.33 7.65 -3.66 9.3 -4 11 C-4.99 11.33 -5.98 11.66 -7 12 C-2.38461538 2.38461538 -2.38461538 2.38461538 0 0 Z " fill="#A2A0A0" transform="translate(49,117)"/>
<path d="M0 0 C-0.99 0.33 -1.98 0.66 -3 1 C-4.20882096 3.00016466 -4.20882096 3.00016466 -5 5 C-7.31 4.34 -9.62 3.68 -12 3 C-8.52582963 0.68388642 -4.04642977 -2.02321489 0 0 Z " fill="#A5A4A5" transform="translate(363,103)"/>
<path d="M0 0 C2.00993705 3.01490557 2.72623341 5.2149927 3.625 8.6875 C3.88539063 9.68136719 4.14578125 10.67523438 4.4140625 11.69921875 C4.60742188 12.45847656 4.80078125 13.21773437 5 14 C2.5 12.625 2.5 12.625 0 10 C-0.44908891 6.62919149 -0.29036649 3.38115651 0 0 Z " fill="#A6A4A2" transform="translate(408,69)"/>
<path d="M0 0 C1 4 1 4 0.00390625 5.703125 C-1.33072917 7.13541667 -2.66536458 8.56770833 -4 10 C-4.99 9.67 -5.98 9.34 -7 9 C-4.69 6.03 -2.38 3.06 0 0 Z " fill="#BEBDBC" transform="translate(389,296)"/>
<path d="M0 0 C2.31 1.65 4.62 3.3 7 5 C3 6 3 6 0 6 C-1 3 -1 3 0 0 Z " fill="#C0BDBC" transform="translate(161,239)"/>
<path d="M0 0 C0.99 0.33 1.98 0.66 3 1 C3 1.66 3 2.32 3 3 C3.66 3 4.32 3 5 3 C5.66 4.65 6.32 6.3 7 8 C0.57142857 3.85714286 0.57142857 3.85714286 -2 1 C-1.34 0.67 -0.68 0.34 0 0 Z " fill="#A2A0A1" transform="translate(183,195)"/>
<path d="M0 0 C3.74281699 2.38179263 6.97727468 4.74475735 10 8 C9.38125 7.814375 8.7625 7.62875 8.125 7.4375 C5.95839822 6.76313824 5.95839822 6.76313824 4 8 C0 2.25 0 2.25 0 0 Z " fill="#A6A2A5" transform="translate(218,134)"/>
<path d="M0 0 C0.33 0 0.66 0 1 0 C1.08107583 1.93681161 1.13922475 3.8745934 1.1875 5.8125 C1.22230469 6.89144531 1.25710937 7.97039062 1.29296875 9.08203125 C1 12 1 12 -0.51171875 13.88671875 C-1.00285156 14.25410156 -1.49398437 14.62148438 -2 15 C-2.33 13.68 -2.66 12.36 -3 11 C-2.01 10.67 -1.02 10.34 0 10 C0 6.7 0 3.4 0 0 Z " fill="#9C9797" transform="translate(94,338)"/>
<path d="M0 0 C3.16115776 1.36983503 3.9927092 1.9890638 6 5 C5.34 5 4.68 5 4 5 C4 5.66 4 6.32 4 7 C3.01 6.67 2.02 6.34 1 6 C0.67 4.02 0.34 2.04 0 0 Z " fill="#BCBCBA" transform="translate(168,245)"/>
<path d="M0 0 C2.375 -0.1875 2.375 -0.1875 5 0 C5.66 0.99 6.32 1.98 7 3 C7.66 2.67 8.32 2.34 9 2 C9.33 3.65 9.66 5.3 10 7 C6.42032008 5.34784004 3.22017048 3.26875648 0 1 C0 0.67 0 0.34 0 0 Z " fill="#A8A3A3" transform="translate(147,170)"/>
<path d="M0 0 C0.99 0 1.98 0 3 0 C3 1.32 3 2.64 3 4 C3.66 4.33 4.32 4.66 5 5 C3.35 5.33 1.7 5.66 0 6 C0 4.02 0 2.04 0 0 Z " fill="#F8F3F3" transform="translate(129,395)"/>
<path d="M0 0 C1.32 0.33 2.64 0.66 4 1 C4 2.32 4 3.64 4 5 C1.03 4.505 1.03 4.505 -2 4 C-1.34 2.68 -0.68 1.36 0 0 Z " fill="#FAF7F6" transform="translate(165,378)"/>
<path d="M0 0 C4.875 4.625 4.875 4.625 6 8 C3.53199953 6.84826645 1.95216435 5.95216435 0 4 C0 2.68 0 1.36 0 0 Z " fill="#BFBDBC" transform="translate(400,292)"/>
<path d="M0 0 C-0.99 0.66 -1.98 1.32 -3 2 C-3.33 2.66 -3.66 3.32 -4 4 C-5.32 4 -6.64 4 -8 4 C-7.6875 2.0625 -7.6875 2.0625 -7 0 C-3.86650268 -1.04449911 -3.01031744 -0.93423645 0 0 Z " fill="#FBF8F9" transform="translate(461,109)"/>
<path d="M0 0 C0 0.66 0 1.32 0 2 C-3.85756507 4.15305957 -6.55129785 5.39253254 -11 5 C-9.70976282 2.41952564 -8.72910609 2.32977036 -6.0625 1.375 C-5.35222656 1.11460938 -4.64195313 0.85421875 -3.91015625 0.5859375 C-2 0 -2 0 0 0 Z " fill="#A5A3A4" transform="translate(87,90)"/>
<path d="M0 0 C1.32 0.33 2.64 0.66 4 1 C2.76302083 2.46484375 1.52604167 3.9296875 0.2890625 5.39453125 C-0.89201099 6.8655046 -1.95358529 8.43037794 -3 10 C-2.49287967 6.28111761 -1.88391785 3.26545761 0 0 Z " fill="#958F8F" transform="translate(323,84)"/>
<path d="M0 0 C3.057952 1.73559438 5.63379989 3.38472619 8 6 C6.35 6.33 4.7 6.66 3 7 C0 2.25 0 2.25 0 0 Z " fill="#B3B2B0" transform="translate(258,317)"/>
<path d="M0 0 C1.65 0 3.3 0 5 0 C6.32 2.31 7.64 4.62 9 7 C5.18315774 5.44499019 2.80804268 2.96404505 0 0 Z " fill="#929192" transform="translate(64,249)"/>
<path d="M0 0 C0.68707555 2.49064888 1 4.37886292 1 7 C-0.65 6.67 -2.3 6.34 -4 6 C-1.125 1.125 -1.125 1.125 0 0 Z " fill="#BAB5B5" transform="translate(367,244)"/>
<path d="M0 0 C0.99 0.33 1.98 0.66 3 1 C1.63016497 4.16115776 1.0109362 4.9927092 -2 7 C-1.125 1.125 -1.125 1.125 0 0 Z " fill="#C7C6C7" transform="translate(358,242)"/>
<path d="M0 0 C0.66 1.32 1.32 2.64 2 4 C1.236875 4.28875 0.47375 4.5775 -0.3125 4.875 C-3.15029308 5.96269013 -3.15029308 5.96269013 -6 8 C-5.65120368 4.74456771 -4.97866739 3.98126893 -2.4375 1.75 C-1.633125 1.1725 -0.82875 0.595 0 0 Z " fill="#BCBBBB" transform="translate(416,192)"/>
<path d="M0 0 C1.98 0.99 1.98 0.99 4 2 C4 2.99 4 3.98 4 5 C4.99 5.33 5.98 5.66 7 6 C6.67 7.65 6.34 9.3 6 11 C4.41028035 8.61542052 3.13258407 6.3695876 1.875 3.8125 C1.52179688 3.09707031 1.16859375 2.38164062 0.8046875 1.64453125 C0.53914063 1.10183594 0.27359375 0.55914062 0 0 Z " fill="#979696" transform="translate(385,131)"/>
<path d="M0 0 C0.66 0.33 1.32 0.66 2 1 C1 4 1 4 -2 6 C-4.1875 5.625 -4.1875 5.625 -6 5 C-4.02 3.35 -2.04 1.7 0 0 Z " fill="#979696" transform="translate(66,100)"/>
<path d="M0 0 C1.98 0.495 1.98 0.495 4 1 C4 1.99 4 2.98 4 4 C2.35 4.33 0.7 4.66 -1 5 C-0.67 3.35 -0.34 1.7 0 0 Z " fill="#B6B2B3" transform="translate(328,79)"/>
<path d="M0 0 C0.99 0.99 1.98 1.98 3 3 C2.34 3 1.68 3 1 3 C1 4.65 1 6.3 1 8 C0.34 8 -0.32 8 -1 8 C-1.93065133 5.39417629 -2.14917407 4.35801776 -1.0625 1.75 C-0.711875 1.1725 -0.36125 0.595 0 0 Z " fill="#AAA9AA" transform="translate(86,398)"/>
<path d="M0 0 C1.98 0.495 1.98 0.495 4 1 C4 2.32 4 3.64 4 5 C2.68 5 1.36 5 0 5 C-0.33 4.01 -0.66 3.02 -1 2 C-0.67 1.34 -0.34 0.68 0 0 Z " fill="#F8F4F6" transform="translate(189,396)"/>
<path d="M0 0 C1.32 0.33 2.64 0.66 4 1 C5.125 4.75 5.125 4.75 4 7 C0 2.25 0 2.25 0 0 Z " fill="#B0AFAF" transform="translate(394,372)"/>
<path d="M0 0 C0.33 0.66 0.66 1.32 1 2 C-0.13719419 5.41158256 -1.04342944 6.11854601 -4 8 C-4.66 8 -5.32 8 -6 8 C-6 7.34 -6 6.68 -6 6 C-5.34 6 -4.68 6 -4 6 C-3.71125 5.38125 -3.4225 4.7625 -3.125 4.125 C-2 2 -2 2 0 0 Z " fill="#989898" transform="translate(389,220)"/>
<path d="M0 0 C1 3 1 3 0 6 C-3.0625 7.1875 -3.0625 7.1875 -6 8 C-4.26440562 4.942048 -2.61527381 2.36620011 0 0 Z " fill="#9F9D9E" transform="translate(409,198)"/>
<path d="M0 0 C2.97 0.99 5.94 1.98 9 3 C5 5 5 5 2.8125 4.3125 C1 3 1 3 0 0 Z " fill="#A6A5A6" transform="translate(426,97)"/>
<path d="M0 0 C3 1 3 1 4 3 C4.99 3.66 5.98 4.32 7 5 C3.44219804 4.39009109 0.3171411 3.4216319 -3 2 C-2.01 1.34 -1.02 0.68 0 0 Z " fill="#A5A1A0" transform="translate(243,388)"/>
<path d="M0 0 C1.98 0 3.96 0 6 0 C6 1.65 6 3.3 6 5 C3.98079663 3.69593116 1.98075027 2.36176581 0 1 C0 0.67 0 0.34 0 0 Z " fill="#C0BDBF" transform="translate(223,378)"/>
<path d="M0 0 C2.66735273 2.48952921 4.55746343 4.63408134 6 8 C4.35 7.67 2.7 7.34 1 7 C1.33 6.01 1.66 5.02 2 4 C1.34 4 0.68 4 0 4 C0 2.68 0 1.36 0 0 Z " fill="#BDBCBB" transform="translate(448,352)"/>
<path d="M0 0 C0.33 1.32 0.66 2.64 1 4 C-0.65 5.32 -2.3 6.64 -4 8 C-4.66 7.67 -5.32 7.34 -6 7 C-4.02 4.69 -2.04 2.38 0 0 Z " fill="#B3B0B2" transform="translate(332,282)"/>
<path d="M0 0 C2.92879371 0.62759865 5.36095629 1.58622659 8 3 C5.39417629 3.93065133 4.35801776 4.14917407 1.75 3.0625 C1.1725 2.711875 0.595 2.36125 0 2 C0 1.34 0 0.68 0 0 Z " fill="#ACABAB" transform="translate(157,91)"/>
<path d="M0 0 C2.125 0.9375 2.125 0.9375 4 2 C-0.75 5 -0.75 5 -3 5 C-2.625 3.0625 -2.625 3.0625 -2 1 C-1.34 0.67 -0.68 0.34 0 0 Z " fill="#A39FA1" transform="translate(301,384)"/>
<path d="M0 0 C2.125 0.375 2.125 0.375 4 1 C4 2.65 4 4.3 4 6 C2.02 4.68 0.04 3.36 -2 2 C-1.34 1.34 -0.68 0.68 0 0 Z " fill="#B0ACAF" transform="translate(227,229)"/>
<path d="M0 0 C1.98 0.66 3.96 1.32 6 2 C6.33 3.65 6.66 5.3 7 7 C3.42895561 5.12050295 1.45255699 3.82946843 0 0 Z " fill="#9B999A" transform="translate(35,226)"/>
<path d="M0 0 C3.057952 1.73559438 5.63379989 3.38472619 8 6 C6.68 6.33 5.36 6.66 4 7 C3.566875 6.0409375 3.566875 6.0409375 3.125 5.0625 C2.17176549 2.84793921 2.17176549 2.84793921 0 2 C0 1.34 0 0.68 0 0 Z " fill="#999596" transform="translate(289,190)"/>
<path d="M0 0 C2.97 0.33 5.94 0.66 9 1 C9 1.33 9 1.66 9 2 C5.7 2.66 2.4 3.32 -1 4 C-0.67 2.68 -0.34 1.36 0 0 Z " fill="#969192" transform="translate(435,116)"/>
</svg>
