<?xml version="1.0" encoding="UTF-8"?>
<svg version="1.1" xmlns="http://www.w3.org/2000/svg" width="975" height="974">
<path d="M0 0 C321.75 0 643.5 0 975 0 C975 321.42 975 642.84 975 974 C653.25 974 331.5 974 0 974 C0 652.58 0 331.16 0 0 Z " fill="#FC4E1C" transform="translate(0,0)"/>
<path d="M0 0 C4.74971007 1.63212865 9.36266164 3.54492253 13.9765625 5.5234375 C15.52722187 6.16305598 17.07800341 6.80237835 18.62890625 7.44140625 C37.968992 15.5738459 53.84904171 27.19799561 69.9765625 40.5234375 C78.14862459 47.21867393 86.3600975 53.85683314 94.68676758 60.35888672 C99.84850719 64.39927032 104.92919543 68.53563386 110.00683594 72.6809082 C114.37552013 76.24090981 118.78301076 79.74496714 123.2265625 83.2109375 C128.54791097 87.36302106 133.74208449 91.64599991 138.91015625 95.98828125 C142.24404459 98.74457874 145.6300837 101.42362579 149.0390625 104.0859375 C154.0823555 108.02460032 159.06884442 112.0213125 164.01171875 116.0859375 C172.70408311 123.23222915 181.42443027 130.34150125 190.2890625 137.2734375 C196.93699533 142.47291222 203.47493473 147.79590498 209.97558594 153.17871094 C211.45283879 154.40192658 212.93063885 155.62448162 214.40893555 156.84643555 C215.87013972 158.05453518 217.3300237 159.26423408 218.78833008 160.47583008 C222.13350451 163.24163085 225.502334 165.9444761 228.98828125 168.53125 C233.146528 171.61748455 237.12487232 174.89579018 241.1015625 178.2109375 C246.33984124 182.55331517 251.6061595 186.84550168 256.9765625 191.0234375 C262.33255423 195.19640077 267.60864736 199.45924119 272.8515625 203.7734375 C273.54121094 204.33998047 274.23085938 204.90652344 274.94140625 205.49023438 C296.10070821 222.95990854 296.10070821 222.95990854 297.25330734 234.22926712 C297.36582581 237.42680252 297.3819304 240.61154793 297.36474609 243.81103516 C297.37263153 245.62712532 297.37263153 245.62712532 297.38067627 247.47990417 C297.39157086 250.77951535 297.38908427 254.07855761 297.37953901 257.37813616 C297.37190586 260.84132136 297.3789978 264.30448345 297.38369751 267.76766968 C297.38914302 273.57953216 297.38199371 279.39127996 297.36767578 285.203125 C297.35133611 291.91292162 297.35665202 298.62244492 297.373155 305.33223498 C297.38678599 311.10656365 297.38868213 316.88081025 297.38083899 322.65514982 C297.37617328 326.09817508 297.37550742 329.54107199 297.38544846 332.9840889 C297.39575493 336.82104303 297.38145438 340.65769282 297.36474609 344.49462891 C297.37081879 345.62933121 297.37689148 346.76403351 297.38314819 347.93312073 C297.33008369 354.50986528 296.90851852 359.34493063 292.2578125 364.38671875 C291.67 364.86496094 291.0821875 365.34320312 290.4765625 365.8359375 C289.88875 366.32707031 289.3009375 366.81820313 288.6953125 367.32421875 C285.32212939 369.6777806 282.15274477 369.71323098 278.1640625 369.7734375 C277.14699219 369.79921875 276.12992188 369.825 275.08203125 369.8515625 C268.17173406 369.12141789 263.42671452 364.69175551 258.2890625 360.3984375 C257.58281738 359.81586182 256.87657227 359.23328613 256.14892578 358.63305664 C254.73405594 357.46570045 253.32092801 356.29622937 251.90966797 355.12451172 C249.40582978 353.05073414 246.8781088 351.00695196 244.3515625 348.9609375 C239.531832 345.01818052 234.8152393 340.9620462 230.09936523 336.89648438 C225.98397245 333.3588392 221.78956649 329.94289311 217.53125 326.578125 C214.48931335 324.1315521 211.51241195 321.61506316 208.5390625 319.0859375 C201.18370881 312.83205824 193.73455419 306.70321594 186.1640625 300.7109375 C181.38912946 296.90769195 176.7718398 292.93584108 172.15136719 288.94824219 C168.01960503 285.39164649 163.8090227 281.95826671 159.53125 278.578125 C155.91804203 275.67208923 152.39434513 272.66448168 148.86303711 269.65991211 C145.43065286 266.74326689 141.9705451 263.86643062 138.4765625 261.0234375 C134.54021768 257.81983219 130.65285756 254.56386111 126.7890625 251.2734375 C121.93007022 247.13764407 117.00383552 243.09397601 112.0390625 239.0859375 C106.24760336 234.40838056 100.55578422 229.63318157 94.92089844 224.76855469 C89.68581325 220.2543074 84.34613694 215.87671395 78.9765625 211.5234375 C75.85564584 208.97653797 72.73820685 206.42541192 69.62255859 203.87207031 C68.43572527 202.89964858 67.24850282 201.9277017 66.06103516 200.95605469 C57.92163048 194.29286741 49.83105655 187.58505927 41.86621094 180.71386719 C37.55533703 177.0006881 33.17078253 173.38746639 28.75390625 169.80078125 C25.63259683 167.24139533 22.55213011 164.63742205 19.4765625 162.0234375 C14.58217164 157.86619272 9.65080961 153.76052732 4.66015625 149.71875 C2.82160889 148.21472727 1.00201129 146.68732465 -0.80078125 145.140625 C-13.55941995 134.29667682 -25.2921805 130.48083692 -42.0234375 131.5234375 C-52.98146518 133.23248769 -60.49020332 139.88214642 -67.0234375 148.5234375 C-68.82373232 151.45699297 -68.82373232 151.45699297 -70.0234375 154.5234375 C-70.27596962 155.10624585 -70.52850173 155.68905421 -70.78868634 156.28952342 C-72.73112755 161.03513449 -73.45205113 165.26083975 -73.39524841 170.3992157 C-73.39907298 171.14981335 -73.40289754 171.900411 -73.406838 172.67375404 C-73.41605759 175.16640477 -73.40417359 177.65849043 -73.39233398 180.15112305 C-73.39480407 181.94712554 -73.3986446 183.74312659 -73.40374756 185.53912354 C-73.41206406 189.39523319 -73.41129645 193.25119505 -73.40356255 197.10730553 C-73.39195633 203.20448487 -73.40416036 209.30147496 -73.42018127 215.39863586 C-73.45633029 230.53727086 -73.4626022 245.67590095 -73.46008301 260.8145752 C-73.45837266 272.5915586 -73.46545622 284.368387 -73.50006157 296.14532691 C-73.51686848 302.20716252 -73.51505062 308.26862005 -73.49923885 314.33045423 C-73.49344944 318.09796761 -73.50416776 321.8653009 -73.51948547 325.63278198 C-73.52321698 327.38031235 -73.52008843 329.12787278 -73.50961494 330.87537575 C-73.49627272 333.26024383 -73.50742769 335.64379542 -73.52464294 338.02861023 C-73.51483617 338.7206326 -73.50502939 339.41265498 -73.49492544 340.12564772 C-73.56520775 344.83054216 -74.65593212 347.25315033 -78.0234375 350.5234375 C-81.78951318 351.77879606 -85.1251109 352.22325115 -89.0234375 351.5234375 C-91.86294207 350.00175052 -94.13467222 347.98188039 -96.5234375 345.8359375 C-97.92666986 344.63623496 -99.3303279 343.43703017 -100.734375 342.23828125 C-101.79930176 341.31184814 -101.79930176 341.31184814 -102.88574219 340.36669922 C-106.24617136 337.46911582 -109.696727 334.68603419 -113.1484375 331.8984375 C-113.81004883 331.36025391 -114.47166016 330.82207031 -115.15332031 330.26757812 C-120.06210052 326.27783736 -125.02925897 322.36746936 -130.01611328 318.47607422 C-134.75298302 314.76690102 -139.36394943 310.91881606 -143.96875 307.046875 C-147.23245224 304.35077315 -150.55528492 301.7445582 -153.8984375 299.1484375 C-159.32919005 294.92584796 -164.57306002 290.52893363 -169.75976562 286.01098633 C-173.28197718 282.96067602 -176.8786575 280.0546999 -180.58081055 277.22583008 C-189.16799915 270.65942784 -197.11217195 264.41346129 -200.0234375 253.5234375 C-200.43375748 249.78177556 -200.42389818 246.07369194 -200.39575195 242.3125 C-200.40122795 240.66680779 -200.40122795 240.66680779 -200.40681458 238.98786926 C-200.4148939 235.37456589 -200.40132409 231.76171493 -200.38671875 228.1484375 C-200.38619953 225.61987305 -200.38671961 223.09130819 -200.38822937 220.56274414 C-200.38813974 215.26360549 -200.37807813 209.96462325 -200.35961914 204.66552734 C-200.33854176 198.58081066 -200.33492406 192.49628294 -200.3411811 186.41153717 C-200.34692663 180.51796493 -200.34105558 174.62445897 -200.33000755 168.730896 C-200.32618784 166.24330915 -200.32499376 163.75571671 -200.3265934 161.26812744 C-200.32835156 144.90501084 -200.1956478 128.84468516 -195.7734375 112.9609375 C-195.55727783 112.16776123 -195.34111816 111.37458496 -195.1184082 110.55737305 C-192.9822019 102.96984243 -190.27680347 95.70834649 -187.0234375 88.5234375 C-186.73098145 87.8727832 -186.43852539 87.22212891 -186.13720703 86.55175781 C-169.16396114 49.37055533 -135.87661061 20.12037608 -97.92578125 5.51171875 C-84.99434827 0.73893787 -72.40609677 -2.55696288 -58.5703125 -3.265625 C-39.27450303 -4.86374419 -19.06821695 -5.98469502 0 0 Z " fill="#FDFCFC" transform="translate(284.0234375,169.4765625)"/>
<path d="M0 0 C1.78691301 -0.00457005 3.57382427 -0.00987805 5.36073303 -0.0158844 C9.0814637 -0.02476278 12.80197905 -0.02244838 16.52270508 -0.01245117 C21.2864068 -0.00089673 26.04937432 -0.02129796 30.8129797 -0.05036831 C34.49246408 -0.0687089 38.17177113 -0.06844337 41.85128975 -0.06273079 C43.60834352 -0.06257769 45.3654094 -0.06861242 47.12241936 -0.08102226 C49.57289006 -0.09591135 52.02198435 -0.08527626 54.47241211 -0.06811523 C55.19299301 -0.0777832 55.91357391 -0.08745117 56.6559906 -0.09741211 C60.21518156 -0.04525487 62.19613896 0.37795134 65.2412262 2.28135681 C67.28515625 4.43359375 67.28515625 4.43359375 67.80078125 7.37109375 C67.2042309 10.91424126 66.21756746 12.59468485 64.03515625 15.43359375 C63.30683594 16.38234375 62.57851563 17.33109375 61.828125 18.30859375 C58.07657766 22.9708266 54.16525257 27.49721854 50.23828125 32.01171875 C47.62754295 35.01893983 45.100511 38.08565465 42.59765625 41.18359375 C39.04653559 45.56011002 35.32718227 49.74190835 31.53125 53.90625 C29.22328027 56.50321768 27.02959762 59.16763388 24.84765625 61.87109375 C21.75366911 65.69815102 18.55685075 69.37640248 15.22265625 72.99609375 C12.10403785 76.38380712 9.12859799 79.81206735 6.28515625 83.43359375 C3.44171451 87.05512015 0.46627465 90.48338038 -2.65234375 93.87109375 C-6.69558509 98.26458548 -10.49785077 102.79121579 -14.25 107.43359375 C-18.72694648 112.88255555 -23.38690595 118.17444603 -28.02099609 123.48974609 C-30.7783108 126.65402105 -33.52809843 129.82480792 -36.27734375 132.99609375 C-36.81294922 133.61347412 -37.34855469 134.23085449 -37.90039062 134.86694336 C-42.11368369 139.7278965 -46.29332785 144.61704934 -50.47021484 149.50927734 C-53.39747298 152.92749658 -56.37294056 156.29242543 -59.40234375 159.62109375 C-63.27039726 163.88014184 -66.90319979 168.29932469 -70.5234375 172.76953125 C-73.80666291 176.76090332 -77.25971117 180.59137163 -80.71484375 184.43359375 C-85.50215179 189.83935785 -90.19694947 195.32369817 -94.8918457 200.80957031 C-100.25290803 207.07006213 -105.65299457 213.29635283 -111.05615234 219.52050781 C-112.7429671 221.46603039 -114.42658393 223.41427776 -116.109375 225.36328125 C-120.84762847 230.84769477 -125.58658064 236.32258586 -130.46484375 241.68359375 C-133.45347628 244.97652341 -136.2986798 248.34676144 -139.08984375 251.80859375 C-142.77121064 256.36220087 -146.64258848 260.66941891 -150.62841797 264.95263672 C-153.61897016 268.18535579 -156.4525606 271.50047041 -159.21484375 274.93359375 C-162.41418072 278.90991256 -165.74091655 282.70005135 -169.21484375 286.43359375 C-173.42438164 290.96265078 -177.38857243 295.6362734 -181.26953125 300.44921875 C-187.77149793 308.38452632 -194.56340925 316.09442889 -201.46484375 323.68359375 C-204.45347628 326.97652341 -207.2986798 330.34676144 -210.08984375 333.80859375 C-213.76991384 338.36059682 -217.64007259 342.66611623 -221.62402344 346.94824219 C-225.44458754 351.07894305 -228.99684164 355.3918322 -232.52734375 359.7734375 C-235.44029216 363.31579084 -238.50474062 366.70494075 -241.59375 370.09375 C-243.5227071 372.2216419 -245.40520728 374.38080234 -247.27734375 376.55859375 C-265.56409129 397.33898868 -291.51707615 411.57234465 -319.49121094 413.63867188 C-322.29841074 413.73577939 -325.09354757 413.76242815 -327.90234375 413.74609375 C-328.90048096 413.7419043 -329.89861816 413.73771484 -330.92700195 413.73339844 C-343.78607821 413.53911198 -355.67854255 411.03832345 -367.71484375 406.43359375 C-368.43285156 406.17191406 -369.15085937 405.91023438 -369.890625 405.640625 C-380.63425905 401.33103168 -391.07676846 394.42180502 -399.453125 386.4921875 C-402.20493922 383.98751376 -405.1267416 381.74093308 -408.08984375 379.49609375 C-413.05120888 375.72611376 -417.9144199 371.86349038 -422.72265625 367.8984375 C-426.26921807 364.97692247 -429.83466423 362.07925094 -433.40234375 359.18359375 C-434.77345462 358.07033358 -436.14454817 356.95705209 -437.515625 355.84375 C-438.2060791 355.28316895 -438.8965332 354.72258789 -439.60791016 354.14501953 C-441.72120641 352.42842547 -443.83342144 350.71050996 -445.9453125 348.9921875 C-452.29179448 343.82940132 -458.64504518 338.67714127 -465.04296875 333.578125 C-467.83773611 331.33495646 -470.61659431 329.07308145 -473.39428711 326.80883789 C-479.10733858 322.15203742 -484.83907643 317.52731901 -490.65234375 312.99609375 C-496.6569405 308.31350732 -502.53144261 303.48371706 -508.39599609 298.62744141 C-512.81008369 294.98015302 -517.26308225 291.39348752 -521.77734375 287.87109375 C-523.47969005 286.53724315 -525.18156924 285.20279887 -526.88330078 283.86816406 C-528.17975526 282.85270598 -529.47776252 281.8392289 -530.77685547 280.82714844 C-532.93098295 279.14351875 -535.07363511 277.4461105 -537.21484375 275.74609375 C-537.87363525 275.23554443 -538.53242676 274.72499512 -539.21118164 274.19897461 C-545.5602414 269.12248621 -550.26122466 263.22867427 -553.52734375 255.74609375 C-553.92566406 254.85535156 -554.32398438 253.96460938 -554.734375 253.046875 C-556.40767923 248.58695258 -556.84154172 244.45486046 -556.86201477 239.70960999 C-556.86917007 238.56708267 -556.87632538 237.42455536 -556.88369751 236.24740601 C-556.88638641 235.00310822 -556.88907532 233.75881042 -556.8918457 232.47680664 C-556.8984169 231.15922867 -556.9049881 229.8416507 -556.91175842 228.48414612 C-556.93272635 224.12485965 -556.94315045 219.7655731 -556.953125 215.40625 C-556.95717455 213.90286173 -556.96129153 212.39947364 -556.96547508 210.89608574 C-556.9845067 203.83532457 -556.99874487 196.77457377 -557.00708705 189.71379191 C-557.0168678 181.5709367 -557.04321741 173.42835271 -557.08358794 165.28559309 C-557.11375226 158.98481138 -557.128556 152.68410746 -557.13186806 146.38325495 C-557.13421716 142.62264504 -557.14315974 138.86232558 -557.16832924 135.10179329 C-557.19595078 130.90761337 -557.19177792 126.71404048 -557.18481445 122.51977539 C-557.19762451 121.27750183 -557.21043457 120.03522827 -557.22363281 118.75531006 C-557.18484535 112.35751635 -557.11609406 108.24747605 -552.71484375 103.43359375 C-548.27700736 99.3204771 -544.48759696 98.95001972 -538.69140625 98.8046875 C-531.46294309 100.33196121 -525.63673909 105.93026149 -520.08984375 110.55859375 C-518.68572687 111.71585279 -517.28076337 112.87208531 -515.875 114.02734375 C-515.17777832 114.60097656 -514.48055664 115.17460937 -513.76220703 115.765625 C-510.7203587 118.24379192 -507.62563816 120.65167234 -504.52734375 123.05859375 C-499.35050935 127.09259541 -494.31222363 131.26384107 -489.32080078 135.52441406 C-485.43777539 138.83581457 -481.49129517 142.04927893 -477.4921875 145.21875 C-473.96121159 148.03459155 -470.46460256 150.89161591 -466.96484375 153.74609375 C-461.86116965 157.90624154 -456.72242323 162.01326893 -451.52734375 166.05859375 C-446.35553516 170.08973448 -441.32067892 174.2560746 -436.33398438 178.51342773 C-431.54592455 182.59723152 -426.65198811 186.53244034 -421.71484375 190.43359375 C-416.13433924 194.84310715 -410.6315356 199.32506917 -405.21484375 203.93359375 C-398.78629108 209.40000575 -392.23443712 214.68637998 -385.58203125 219.87890625 C-378.30803446 225.55904973 -371.14354035 231.3522929 -364.03515625 237.23852539 C-359.07209976 241.33944153 -354.0514846 245.35396034 -348.96850586 249.30493164 C-345.78848706 251.78305234 -342.64624428 254.29894736 -339.53515625 256.86328125 C-338.82625244 257.44650146 -338.11734863 258.02972168 -337.38696289 258.63061523 C-336.023067 259.75585697 -334.66262353 260.88530231 -333.30639648 262.01977539 C-322.31523402 271.07904652 -311.25925458 275.01007462 -296.95214844 273.77392578 C-285.67150655 272.05794861 -276.37754728 265.56282413 -268.71484375 257.43359375 C-268.16554199 256.8597998 -267.61624023 256.28600586 -267.05029297 255.69482422 C-261.04449003 249.41654628 -255.15211925 243.0391873 -249.484375 236.453125 C-247.10599878 233.73873095 -244.65972021 231.0879025 -242.21484375 228.43359375 C-238.57059605 224.47507035 -234.97570409 220.48182328 -231.44921875 216.41796875 C-227.15804423 211.50824655 -222.75682267 206.69484557 -218.38671875 201.85546875 C-214.97178737 198.06884416 -211.56497849 194.27775758 -208.21484375 190.43359375 C-204.10401255 185.71655703 -199.90704715 181.07824406 -195.71484375 176.43359375 C-194.23553145 174.78789131 -192.75636429 173.1420584 -191.27734375 171.49609375 C-188.06161953 167.92119614 -184.82944466 164.36186252 -181.58984375 160.80859375 C-178.78726994 157.73049809 -176.005165 154.64057505 -173.27734375 151.49609375 C-169.84648142 147.54614114 -166.30354104 143.70172275 -162.75976562 139.85351562 C-160.22758967 137.09903615 -157.7245664 134.32625588 -155.27734375 131.49609375 C-151.69817055 127.36759901 -147.98162619 123.37081334 -144.26904297 119.36279297 C-137.91596274 112.50003284 -131.66951341 105.54821447 -125.52734375 98.49609375 C-122.67972087 95.2556953 -119.78148089 92.0611801 -116.890625 88.859375 C-115.04040812 86.79656587 -113.21539566 84.71647005 -111.40234375 82.62109375 C-107.73110019 78.40215884 -103.92240649 74.31419263 -100.12011719 70.21386719 C-96.86897896 66.70182257 -93.68515159 63.14375417 -90.5546875 59.5234375 C-88.14814184 56.78988776 -85.68179426 54.11247021 -83.21484375 51.43359375 C-79.59391654 47.50076971 -76.02525389 43.53145293 -72.5234375 39.4921875 C-69.44012514 35.98267214 -66.27617968 32.54649819 -63.12109375 29.1015625 C-61.09550618 26.8556594 -59.14995981 24.56914581 -57.21484375 22.24609375 C-41.62001553 4.47524299 -22.53703418 -0.05081137 0 0 Z " fill="#FDFCFC" transform="translate(834.71484375,335.56640625)"/>
<path d="M0 0 C3.5731559 1.19105197 4.25003825 2.29454177 6.5 5.25 C9.68902606 9.34851064 12.94725331 13.35919817 16.3125 17.3125 C16.77575684 17.85793457 17.23901367 18.40336914 17.71630859 18.96533203 C19.1432333 20.64438438 20.57157617 22.32222294 22 24 C27.96404952 31.01375504 33.88082085 38.05652382 39.6953125 45.1953125 C44.50351383 51.04664904 49.42740858 56.80171524 54.33544922 62.56933594 C60.56171022 69.88755892 66.70684432 77.26709826 72.80126953 84.69555664 C76.38875865 89.06261393 80.01634842 93.39066688 83.6875 97.6875 C87.96503612 102.69741046 92.04061003 107.84374496 96.08227539 113.04492188 C99.26018149 117.11392038 102.59010221 120.99446123 106.05859375 124.8203125 C109.39586083 128.56718379 112.53174974 132.47765779 115.68701172 136.37792969 C117.12342257 138.15247668 118.56337913 139.92410549 120.00390625 141.6953125 C122.20340699 144.3997596 124.40109808 147.10566251 126.59765625 149.8125 C128.8504052 152.5875036 131.10847305 155.35804042 133.37109375 158.125 C136.08020457 161.43913103 138.77429371 164.76499468 141.45996094 168.09814453 C142.97519641 169.96936906 144.50674835 171.82634914 146.0390625 173.68359375 C146.96446331 174.8299858 147.88899079 175.97708357 148.8125 177.125 C149.62332031 178.11757813 150.43414063 179.11015625 151.26953125 180.1328125 C153.30692006 183.5085312 153.67290651 185.12693505 153 189 C151.70739746 191.64562988 151.70739746 191.64562988 149 194 C145.06786895 194.76820897 141.1648655 194.66151192 137.16992188 194.61523438 C135.95966339 194.62078339 134.74940491 194.6263324 133.50247192 194.63204956 C130.1832535 194.64184154 126.86559063 194.6292282 123.5465374 194.60576439 C120.06345845 194.58562418 116.58041292 194.59153722 113.09729004 194.59387207 C107.23952641 194.59381847 101.382085 194.5740617 95.52441406 194.54199219 C88.77844683 194.50523583 82.03290379 194.49629749 75.2868495 194.5032897 C68.77707732 194.5096293 62.26744881 194.4987681 55.75770569 194.47932434 C52.99884472 194.47120713 50.24005779 194.46843029 47.48118591 194.47001648 C43.60904845 194.47107102 39.73728346 194.44670869 35.86523438 194.41992188 C34.73646881 194.42285248 33.60770325 194.42578308 32.44473267 194.42880249 C21.82574113 194.31625838 12.07543076 193.24460021 4.2578125 185.5390625 C0.65112389 181.48309779 -2.67849118 177.23791963 -5.96875 172.92578125 C-9.26931014 168.6124495 -12.72151432 164.43079328 -16.1875 160.25 C-20.46238388 155.08247014 -24.70843302 149.89776449 -28.8828125 144.6484375 C-31.71577267 141.10462386 -34.57590461 137.58320858 -37.4375 134.0625 C-38.00275391 133.36705078 -38.56800781 132.67160156 -39.15039062 131.95507812 C-42.27901115 128.10865127 -45.41658083 124.26980154 -48.5625 120.4375 C-53.6026374 114.27835962 -58.59728751 108.08502317 -63.53222656 101.84130859 C-64.94970309 100.06309702 -66.39040943 98.30621026 -67.8359375 96.55078125 C-68.68315052 95.49287473 -69.52955232 94.43431785 -70.375 93.375 C-71.12523437 92.45460938 -71.87546875 91.53421875 -72.6484375 90.5859375 C-74 88 -74 88 -73.60546875 85.578125 C-71.43500684 82.09271172 -68.79519058 79.30761585 -65.9375 76.375 C-61.180159 71.37705335 -56.68289768 66.28413842 -52.36328125 60.8984375 C-49.53863734 57.43416349 -46.6223606 54.05844367 -43.6875 50.6875 C-42.85714233 49.73351318 -42.85714233 49.73351318 -42.01000977 48.76025391 C-40.88886894 47.47230087 -39.76769382 46.18437768 -38.64648438 44.89648438 C-36.06362591 41.92144811 -33.49943086 38.9305594 -30.9375 35.9375 C-30.44660889 35.36410889 -29.95571777 34.79071777 -29.44995117 34.19995117 C-28.46114797 33.04469482 -27.47245951 31.88934024 -26.48388672 30.73388672 C-23.49952704 27.24673265 -20.51136179 23.7628388 -17.52392578 20.27832031 C-14.88579554 17.20093661 -12.2487781 14.12260817 -9.61328125 11.04296875 C-9.06091797 10.39779297 -8.50855469 9.75261719 -7.93945312 9.08789062 C-6.87401377 7.84338584 -5.80889723 6.5986046 -4.74414062 5.35351562 C-1.1124622 1.1124622 -1.1124622 1.1124622 0 0 Z " fill="#FDFCFB" transform="translate(749,548)"/>
<path d="M0 0 C3.63947577 2.3419945 6.74339054 5.25423327 9.92578125 8.171875 C12.96068881 10.85158597 16.11313159 13.3339189 19.3125 15.8125 C23.93956059 19.40621892 28.48403539 23.0681176 32.9375 26.875 C42.48832906 35.03422958 52.22631555 42.9808133 62.1796875 50.64453125 C66.04471572 53.65418437 69.85862042 56.72782808 73.67480469 59.79907227 C76.9471767 62.42774617 80.23575118 65.0286464 83.5703125 67.578125 C84.2094458 68.06958008 84.8485791 68.56103516 85.50708008 69.06738281 C86.72337678 70.00023199 87.94436574 70.92700495 89.1706543 71.84667969 C92.12125173 74.11697038 94.27198457 75.94902761 95.5625 79.5 C94.94503906 80.16644531 94.32757812 80.83289063 93.69140625 81.51953125 C89.27334103 86.32762354 84.97013989 91.15931748 80.875 96.25 C77.8391394 100.0114793 74.70460092 103.47714085 71.234375 106.8359375 C68.83759166 109.22152091 66.65329027 111.77255926 64.4453125 114.33203125 C62.3467468 116.74842951 60.208103 119.12529024 58.0625 121.5 C55.41136006 124.43678465 52.77959829 127.38602542 50.1875 130.375 C46.73533922 134.34097076 43.17499119 138.20517646 39.61425781 142.07324219 C36.45552035 145.5102442 33.35611664 148.99021321 30.296875 152.515625 C26.00570048 157.4253472 21.60447892 162.23874818 17.234375 167.078125 C11.14991578 173.82483829 5.15192947 180.63439857 -0.74731445 187.54345703 C-4.9920999 192.51060419 -9.24415547 197.47158944 -13.5625 202.375 C-14.26632812 203.17679688 -14.97015625 203.97859375 -15.6953125 204.8046875 C-17.4375 206.5 -17.4375 206.5 -19.4375 206.5 C-19.53088945 180.37924402 -19.60145282 154.25851302 -19.64474869 128.13762379 C-19.66538492 116.00957983 -19.69352588 103.88163954 -19.73925781 91.75366211 C-19.77909298 81.18446287 -19.80492509 70.61533869 -19.81385398 60.04606646 C-19.81907432 54.4482934 -19.83136626 48.85073509 -19.86042023 43.25303078 C-19.88753674 37.98601657 -19.89595255 32.71930593 -19.88993073 27.45222855 C-19.89103264 25.51763065 -19.89900882 23.58302278 -19.9143219 21.64848518 C-19.93419096 19.0092855 -19.92945062 16.37123555 -19.91851807 13.73200989 C-19.93016943 12.96449349 -19.9418208 12.19697709 -19.95382524 11.40620261 C-19.89851317 6.47436873 -18.93308151 3.97577662 -15.4375 0.5 C-10.73526962 -3.02667279 -5.04047513 -2.19948006 0 0 Z " fill="#FDFCFB" transform="translate(645.4375,296.5)"/>
<path d="M0 0 C1.65 0 3.3 0 5 0 C5.12117187 0.78503906 5.24234375 1.57007812 5.3671875 2.37890625 C5.53476562 3.42949219 5.70234375 4.48007813 5.875 5.5625 C6.03742188 6.59503906 6.19984375 7.62757812 6.3671875 8.69140625 C7.03994982 12.20887342 8.00810899 15.55926454 9 19 C9.3575304 20.51071802 9.70450007 22.02395991 10.04296875 23.5390625 C15.40079109 48.24710915 15.40079109 48.24710915 26 71 C26.5259375 71.83402344 27.051875 72.66804688 27.59375 73.52734375 C38.88825696 89.44015546 60.79742908 94.59577631 78.87548828 98.5234375 C82.4146258 99.31732355 85.92394648 100.22577698 89.4375 101.125 C95.25884259 102.60165404 101.09132912 103.92053128 107 105 C107 106.65 107 108.3 107 110 C106.23147705 110.15033691 105.4629541 110.30067383 104.67114258 110.45556641 C67.64886615 116.80489116 67.64886615 116.80489116 35 134 C34.30132813 134.56074219 33.60265625 135.12148437 32.8828125 135.69921875 C19.07085878 148.08698269 13.8273735 169.0942289 10.6484375 186.671875 C9.91979049 190.41167772 8.85431038 193.94691913 7.6953125 197.5703125 C6.43558788 201.97227157 5.72966565 206.48465726 5 211 C3.68 211.33 2.36 211.66 1 212 C-1.39460996 208.1645654 -1.67518693 204.00929689 -2.25 199.625 C-3.35023343 191.99885756 -4.97190355 184.62011179 -7 177.1875 C-7.37366699 175.80135498 -7.37366699 175.80135498 -7.75488281 174.38720703 C-9.09223154 169.61884894 -10.67182158 165.39402688 -13 161 C-13.42807988 159.65567898 -13.82685086 158.30145879 -14.1875 156.9375 C-18.56493903 143.4631955 -26.94107811 134.34236013 -39.3125 127.9375 C-53.46359037 121.00409378 -68.60291448 117.43650182 -83.92919922 114.09130859 C-90.11432088 112.7328095 -96.0312785 111.12096078 -102 109 C-101.67 107.68 -101.34 106.36 -101 105 C-99.80177612 104.72905518 -99.80177612 104.72905518 -98.5793457 104.45263672 C-56.05709985 97.31164865 -56.05709985 97.31164865 -22.4921875 73.47265625 C-14.69520373 60.55252346 -10.91210783 46.46419658 -7 32 C-6.34 32 -5.68 32 -5 32 C-5.0515625 30.9378125 -5.103125 29.875625 -5.15625 28.78125 C-5.15625 22.86985399 -3.77161394 17.2463203 -2.5 11.5 C-2.26152344 10.39140625 -2.02304687 9.2828125 -1.77734375 8.140625 C-1.19216944 5.42541621 -0.59956201 2.71206134 0 0 Z " fill="#FDFAF9" transform="translate(773,88)"/>
<path d="M0 0 C1.32 0 2.64 0 4 0 C4.29390625 1.34191406 4.29390625 1.34191406 4.59375 2.7109375 C6.92545905 12.13827841 9.97340573 19.92318623 18.390625 25.6171875 C23.96164162 28.57788501 29.91345715 30.40713879 36 32 C35.87109375 33.88671875 35.87109375 33.88671875 35 36 C32.41015625 37.01953125 32.41015625 37.01953125 29.0625 37.8125 C21.2191992 40.05712885 14.72854025 42.79735432 10.15625 49.83984375 C8.60789626 52.84926658 7.25732689 55.85875757 6 59 C5.66097656 59.84175781 5.32195313 60.68351562 4.97265625 61.55078125 C4.27790685 63.35328775 3.63189992 65.17451133 3 67 C2.01 67 1.02 67 0 67 C-0.23074219 66.23816406 -0.46148438 65.47632813 -0.69921875 64.69140625 C-3.97743885 54.31253548 -6.4219333 46.57930804 -16.36328125 41.21484375 C-20.1579844 39.46646941 -23.98611951 38.14095989 -28 37 C-28.99 36.67 -29.98 36.34 -31 36 C-30.88671875 33.66015625 -30.88671875 33.66015625 -30 31 C-27.26953125 29.55859375 -27.26953125 29.55859375 -23.8125 28.4375 C-15.83117747 25.63443158 -9.9618743 22.87870109 -5.97265625 14.9609375 C-3.74298651 10.06407791 -1.83810946 5.05480102 0 0 Z " fill="#FCF7F5" transform="translate(547,192)"/>
<path d="M0 0 C1.04285156 -0.00515625 2.08570312 -0.0103125 3.16015625 -0.015625 C4.24425781 -0.00015625 5.32835938 0.0153125 6.4453125 0.03125 C7.52167969 0.01578125 8.59804687 0.0003125 9.70703125 -0.015625 C15.93845544 0.01510952 19.88915874 0.26722875 24.5703125 4.53125 C27.73675049 9.28090698 26.97950286 14.3198149 27.0078125 19.90625 C27.04068359 21.04320312 27.07355469 22.18015625 27.10742188 23.3515625 C27.16151957 31.73178801 27.16151957 31.73178801 24.23046875 35.6953125 C18.17934323 39.87156653 14.49492761 39.92856861 7.2578125 39.96875 C6.22462891 40.00162109 5.19144531 40.03449219 4.12695312 40.06835938 C-4.4058637 40.12856527 -4.4058637 40.12856527 -8.03515625 37.19140625 C-13.06322788 31.60557137 -12.76536518 27.85987148 -12.7421875 20.65625 C-12.75830078 19.66238281 -12.77441406 18.66851563 -12.79101562 17.64453125 C-12.79547568 10.98120867 -11.99780823 7.57329446 -7.66088867 2.43603516 C-4.90956048 0.08721553 -3.57468759 0.01704261 0 0 Z " fill="#FDF8F7" transform="translate(111.4296875,588.46875)"/>
<path d="M0 0 C0.94230469 -0.02900391 1.88460937 -0.05800781 2.85546875 -0.08789062 C8.67833454 -0.14097425 12.21066298 0.28771515 16.75 4.3125 C19.5471799 7.41675888 20.13299762 9.40269351 20.1484375 13.55859375 C20.15423828 15.06196289 20.15423828 15.06196289 20.16015625 16.59570312 C20.14855469 17.63662109 20.13695312 18.67753906 20.125 19.75 C20.13660156 20.78705078 20.14820313 21.82410156 20.16015625 22.89257812 C20.12317172 32.49006305 20.12317172 32.49006305 16.75 36.3125 C16.08871094 37.06402344 15.42742187 37.81554687 14.74609375 38.58984375 C10.20381201 41.2015077 5.96150325 40.93254967 0.8125 40.875 C-0.16396484 40.89884766 -1.14042969 40.92269531 -2.14648438 40.94726562 C-6.67352628 40.93805808 -10.17223272 40.91060942 -13.81640625 38.02734375 C-18.92093108 32.33288988 -18.67614382 27.39023404 -18.75 20 C-18.79125 18.97970703 -18.8325 17.95941406 -18.875 16.90820312 C-18.92885666 11.70093731 -18.77240408 8.2290927 -15.34375 4.14453125 C-10.6952618 -0.53439011 -6.3116326 0.06371096 0 0 Z " fill="#FDF7F5" transform="translate(188.25,544.6875)"/>
<path d="M0 0 C0.94230469 -0.02900391 1.88460937 -0.05800781 2.85546875 -0.08789062 C8.67185461 -0.14091518 12.2052966 0.29608218 16.75 4.3125 C19.62815337 8.62973006 19.19452864 12.47993655 19.25 17.5625 C19.29125 18.49191406 19.3325 19.42132812 19.375 20.37890625 C19.43156072 25.37745972 19.12357851 28.51560722 15.84375 32.421875 C11.2014288 37.16880392 6.79360176 36.59384009 0.4375 36.6875 C-0.98852539 36.74357422 -0.98852539 36.74357422 -2.44335938 36.80078125 C-9.49832626 36.88952297 -9.49832626 36.88952297 -13.29296875 33.9765625 C-17.49330113 28.25874477 -17.64519178 24.92444473 -17.6875 18 C-17.72037109 17.06220703 -17.75324219 16.12441406 -17.78710938 15.15820312 C-17.82240586 10.60495674 -17.79458713 7.33410641 -14.84765625 3.70703125 C-10.17694538 -0.5984511 -6.10759921 0.06165141 0 0 Z " fill="#FDF8F6" transform="translate(174.25,635.6875)"/>
<path d="M0 0 C0.94230469 -0.02900391 1.88460938 -0.05800781 2.85546875 -0.08789062 C8.67185461 -0.14091518 12.2052966 0.29608218 16.75 4.3125 C19.63780958 8.64421437 19.15635177 12.52707298 19.1875 17.625 C19.22037109 18.56279297 19.25324219 19.50058594 19.28710938 20.46679688 C19.32165372 24.9230174 19.31362693 28.26968246 16.47265625 31.85546875 C11.20579275 36.60849191 7.14758844 36.65091012 0.3125 36.625 C-0.9569043 36.64916992 -0.9569043 36.64916992 -2.25195312 36.67382812 C-7.03646492 36.67757481 -10.46456369 36.56019209 -14.25 33.3125 C-18.21640797 28.78070493 -17.76580256 23.59157535 -17.75 17.875 C-17.77835938 16.94623047 -17.80671875 16.01746094 -17.8359375 15.06054688 C-17.84881413 10.53763161 -17.7647967 7.31353033 -14.84375 3.71484375 C-10.18097067 -0.60384494 -6.10859203 0.06166143 0 0 Z " fill="#FDF9F7" transform="translate(270.25,666.6875)"/>
<path d="M0 0 C1.34191406 -0.04350586 1.34191406 -0.04350586 2.7109375 -0.08789062 C8.40818836 -0.14251029 11.78299171 0.41440314 16.25 4.3125 C19.08203629 8.56055443 18.5802592 12.19361269 18.5625 17.1875 C18.57861328 18.08597656 18.59472656 18.98445312 18.61132812 19.91015625 C18.61496692 24.83708662 18.55838569 28.38425875 15.25 32.3125 C10.654059 36.40931731 6.20637208 35.82779882 0.3125 35.8125 C-0.67685547 35.84085938 -1.66621094 35.86921875 -2.68554688 35.8984375 C-7.49226018 35.91136746 -9.9443931 35.91595086 -13.87890625 32.96875 C-17.3631168 28.02248032 -17.03332767 23.32952654 -17.125 17.5 C-17.16238281 16.60990234 -17.19976562 15.71980469 -17.23828125 14.80273438 C-17.29767852 10.35123865 -17.22962707 7.27929457 -14.3515625 3.73828125 C-9.78763764 -0.51727031 -5.99227711 0.06365733 0 0 Z " fill="#FDFAF9" transform="translate(232.75,599.6875)"/>
<path d="M0 0 C0.99 0.33 1.98 0.66 3 1 C4.17578125 3.9140625 4.17578125 3.9140625 5.3125 7.625 C8.03056406 15.93118856 8.03056406 15.93118856 14 22 C18.58729244 23.9989319 23.2000552 25.57316709 28 27 C28 27.99 28 28.98 28 30 C26.98679687 30.35191406 25.97359375 30.70382813 24.9296875 31.06640625 C14.15047412 34.68499435 14.15047412 34.68499435 7 43 C5.42176812 47.27876199 4.12921435 51.58277915 3 56 C1.68 56 0.36 56 -1 56 C-1.17015625 55.35933594 -1.3403125 54.71867187 -1.515625 54.05859375 C-3.68343735 46.3213486 -5.87178172 39.68403414 -12.8515625 35.06640625 C-17.00752792 33.00353614 -21.49033925 32.00305293 -26 31 C-25.890625 28.65625 -25.890625 28.65625 -25 26 C-22.234375 24.59375 -22.234375 24.59375 -18.75 23.5 C-11.87310403 21.07241815 -8.29880291 18.65608704 -4.875 12.1875 C-3.01068813 8.20878565 -1.47722625 4.13623349 0 0 Z " fill="#FDF5F3" transform="translate(613,103)"/>
<path d="M0 0 C0.69480469 -0.02449219 1.38960937 -0.04898438 2.10546875 -0.07421875 C8.28595247 -0.10913674 11.57654044 1.99356422 15.97265625 6.1015625 C17.7220617 9.5529319 17.59822616 12.96952321 17.5625 16.75 C17.5924707 17.86375 17.5924707 17.86375 17.62304688 19 C17.61766796 25.08893707 15.66895605 28.33205988 11.75708008 33.01123047 C8.65527956 35.60310148 4.62259502 34.88662941 0.75 34.875 C-0.52617188 34.91753906 -0.52617188 34.91753906 -1.828125 34.9609375 C-6.28915769 34.9748348 -8.24829559 34.86846804 -11.8515625 32.03125 C-15.98886837 26.60003767 -16.24006735 23.6151479 -16.25 17 C-16.28673828 15.72382812 -16.28673828 15.72382812 -16.32421875 14.421875 C-16.34335548 10.32661434 -16.2343344 7.97811193 -14.1015625 4.3984375 C-9.6207976 0.32644413 -5.9529363 0.01092282 0 0 Z " fill="#FDF7F5" transform="translate(60.875,539.625)"/>
<path d="M0 0 C2.65991922 1.68789936 4.08564114 3.57182108 5.83203125 6.19140625 C6.1328125 9.58984375 6.1328125 9.58984375 6.14453125 13.56640625 C6.16128906 14.87351562 6.17804688 16.180625 6.1953125 17.52734375 C5.81097614 21.40376858 5.26589482 23.19017143 2.83203125 26.19140625 C-2.06224074 30.05932311 -6.81781785 29.73456947 -12.83203125 29.62109375 C-17.53079162 29.015867 -19.1758256 27.78197803 -22.16796875 24.19140625 C-24.75320305 19.02093765 -24.01178783 10.85478586 -23.16796875 5.19140625 C-21.98004094 2.46437489 -21.13729113 1.49716736 -18.6328125 -0.0546875 C-12.71809947 -1.86378356 -5.85215305 -2.18269492 0 0 Z " fill="#FDF7F5" transform="translate(130.16796875,508.80859375)"/>
<path d="M0 0 C4.58507257 2.21065999 6.73474731 4.50810688 9 9 C9.75184196 13.65515482 10.1311276 18.73341098 7.98046875 23.04296875 C5.23192937 26.40598521 2.42834681 28.81883452 -1.92578125 29.37109375 C-12.19395553 29.5724305 -12.19395553 29.5724305 -15.75 26.625 C-19.84568178 21.84670459 -19.44474081 17.66334839 -19.42578125 11.5078125 C-18.89426108 7.12886651 -17.63079463 5.13146248 -14.5078125 2.13671875 C-10.23134867 -1.08724751 -5.12804682 -0.52149629 0 0 Z " fill="#FDF5F3" transform="translate(80,464)"/>
<path d="M0 0 C3.00197464 1.80118478 4.45166366 2.90332732 6 6 C6.43808718 10.28819956 6.44926618 13.94422448 4.75 17.9375 C2.35792078 20.75673623 0.23987321 21.79033038 -3.40234375 22.40625 C-8.04790503 22.57804271 -10.29155287 22.52425087 -14.125 19.6875 C-17.08798241 15.24302639 -16.92152096 10.09546883 -16 5 C-12.42381656 -1.28915019 -6.55244245 -1.09207374 0 0 Z " fill="#FDF5F3" transform="translate(149,710)"/>
<path d="M0 0 C4.06219391 0.04520725 6.5258907 0.61209239 9.75 3.25 C12.57368571 7.48552856 12.41653757 11.27477314 11.75 16.25 C9.95353146 19.18423195 8.8058929 20.72205355 5.75 22.25 C0.22730065 22.95256562 -3.87042946 23.2779153 -8.4375 19.875 C-10.73763497 16.32790542 -10.94755275 12.74153316 -10.75390625 8.59375 C-9.98869691 5.03463679 -8.08503993 3.39356677 -5.25 1.25 C-3.68966377 -0.31033623 -2.16052864 0.04292441 0 0 Z " fill="#FDF7F5" transform="translate(94.25,674.75)"/>
<path d="M0 0 C4.40462428 2.20231214 4.40462428 2.20231214 6 5 C6.96221162 9.7070352 7.34323672 14.56506901 4.95703125 18.890625 C2.17536732 21.60216295 -0.82928381 22.36280087 -4.5625 22.625 C-7.80647679 22.394853 -9.1444899 21.91743434 -12.0625 20.25 C-15.02046459 15.28825295 -15.07940846 10.62224263 -14 5 C-11.03358774 -0.22088557 -5.49025096 -1.2854159 0 0 Z " fill="#FDF5F3" transform="translate(218,706)"/>
<path d="M0 0 C3.120231 1.99694784 4.58556388 3.28699736 5.46875 6.9375 C5.78569459 11.12116853 5.31797626 12.61679784 2.5625 15.9375 C1.716875 16.618125 0.87125 17.29875 0 18 C-0.33 18.33 -0.66 18.66 -1 19 C-4.07637583 19.50213572 -6.92784382 19.53723614 -10 19 C-13.17457096 16.4085135 -14.54580349 14.92564305 -15.47265625 10.99609375 C-15.74630004 7.29839435 -15.07384253 5.11814805 -13.125 2 C-8.73453283 -0.80989899 -5.07593299 -1.0151866 0 0 Z " fill="#FDF4F0" transform="translate(63,632)"/>
<path d="M0 0 C3.0432531 1.9874306 4.62073803 3.32041127 5.4375 6.9375 C5.67021319 10.77726765 5.23162678 12.63711804 3.125 15.9375 C0.20157849 18.77493852 -0.63926349 18.96451772 -4.8125 19.375 C-8.16084564 19.30791111 -9.03191618 18.97938747 -12 17.0625 C-14.33179981 13.49193154 -14.74577495 11.3549794 -14.47265625 7.16015625 C-14 5 -14 5 -12.0625 1.9375 C-7.94608077 -0.66676523 -4.7460093 -1.04704003 0 0 Z " fill="#FDF7F5" transform="translate(333,709)"/>
<path d="M0 0 C3.5060303 0.86943897 4.94966563 2.56083702 6.9375 5.48046875 C7.76313373 10.02145428 7.26293335 11.92113017 4.9375 15.91796875 C1.40978916 18.93122176 1.40978916 18.93122176 -2.0625 19.16796875 C-5.25095573 18.89622536 -6.2635566 18.34643102 -9.0625 16.48046875 C-11.28175086 13.15159246 -11.82140933 11.34110367 -11.5390625 7.41796875 C-10.07434113 1.46303597 -5.59166036 -0.39183984 0 0 Z " fill="#FDF0EC" transform="translate(187.0625,755.51953125)"/>
<path d="M0 0 C2.9375 1.375 2.9375 1.375 5 4 C5.70872149 7.46870192 5.70872149 10.53129808 5 14 C2.34178445 17.38318343 0.72160177 17.88402829 -3.5 18.5625 C-7 18 -7 18 -9.9375 16 C-12.23092162 12.66411401 -12.75815509 10.90015906 -12.48046875 6.9375 C-10.87278432 0.45447986 -5.98096831 -0.96122705 0 0 Z " fill="#FDF2EF" transform="translate(269,747)"/>
<path d="M0 0 C3.625 0.25 3.625 0.25 5.5625 1.3125 C7.2390629 4.36976176 6.99028977 6.8406288 6.625 10.25 C5.5 12.1875 5.5 12.1875 3.625 13.25 C-1.49240891 13.88967611 -1.49240891 13.88967611 -4.078125 12.015625 C-5.80644396 9.66261244 -5.55147216 8.47123814 -5.125 5.625 C-4.96257812 4.43003906 -4.96257812 4.43003906 -4.796875 3.2109375 C-4.07664234 -0.13681061 -3.62883001 0.26880222 0 0 Z " fill="#FDF1EC" transform="translate(373.375,751.75)"/>
<path d="M0 0 C0.66 0.33 1.32 0.66 2 1 C-3.61 6.61 -9.22 12.22 -15 18 C-15.66 17.67 -16.32 17.34 -17 17 C-15.29657414 15.09955869 -13.58752883 13.20471126 -11.875 11.3125 C-11.400625 10.78205078 -10.92625 10.25160156 -10.4375 9.70507812 C-7.18500869 6.12294242 -3.77952775 3.02250068 0 0 Z " fill="#FDDFD5" transform="translate(788,348)"/>
<path d="M0 0 C1.23556641 0.01740234 1.23556641 0.01740234 2.49609375 0.03515625 C3.32238281 0.04417969 4.14867188 0.05320312 5 0.0625 C5.63808594 0.07410156 6.27617188 0.08570313 6.93359375 0.09765625 C6.93359375 0.42765625 6.93359375 0.75765625 6.93359375 1.09765625 C5.10828125 1.19046875 5.10828125 1.19046875 3.24609375 1.28515625 C-0.00053814 1.71688921 -1.18185823 2.17626185 -4.00390625 4.09765625 C-6.71621087 8.0428266 -6.95374085 11.39643653 -7.06640625 16.09765625 C-7.39640625 16.09765625 -7.72640625 16.09765625 -8.06640625 16.09765625 C-8.85375484 7.08688909 -8.85375484 7.08688909 -5.62890625 3.03515625 C-4.78328125 2.39578125 -3.93765625 1.75640625 -3.06640625 1.09765625 C-2.06640625 0.09765625 -2.06640625 0.09765625 0 0 Z " fill="#FCCFC1" transform="translate(92.06640625,674.90234375)"/>
<path d="M0 0 C0.99 0.33 1.98 0.66 3 1 C1.84499901 3.31000199 0.60570059 4.29527356 -1.375 5.9375 C-3.69609686 7.86845505 -5.89368369 9.83553386 -8 12 C-8.66 11.67 -9.32 11.34 -10 11 C-6.7 7.37 -3.4 3.74 0 0 Z " fill="#FDD7CB" transform="translate(749,548)"/>
<path d="M0 0 C0 0.33 0 0.66 0 1 C-1.2375 1.0825 -2.475 1.165 -3.75 1.25 C-6.61184082 1.62989037 -7.95557068 1.97151966 -10.4375 3.5625 C-12.66428983 7.03629214 -12.7266257 9.89938553 -13 14 C-13.33 14 -13.66 14 -14 14 C-14.46444522 9.2626588 -14.66529126 6.05158942 -12.0625 1.9375 C-7.94841058 -0.66529126 -4.7373412 -0.46444522 0 0 Z " fill="#FDDAD0" transform="translate(333,709)"/>
<path d="M0 0 C0.33 0.99 0.66 1.98 1 3 C-2.3 6.3 -5.6 9.6 -9 13 C-9.66 12.67 -10.32 12.34 -11 12 C-10.54109375 11.55269531 -10.0821875 11.10539062 -9.609375 10.64453125 C-6.16447701 7.25029352 -2.92744915 3.86423288 0 0 Z " fill="#FB683D" transform="translate(658,468)"/>
<path d="M0 0 C0.99 0 1.98 0 3 0 C2.75 3.375 2.75 3.375 2 7 C-0.0625 8.4375 -0.0625 8.4375 -2 9 C-1.125 2.25 -1.125 2.25 0 0 Z " fill="#FB7549" transform="translate(782,278)"/>
<path d="M0 0 C5.63470383 -0.5497272 8.38987758 1.04952165 13 4 C13 4.66 13 5.32 13 6 C8.52761347 4.58192622 4.28853694 2.88695626 0 1 C0 0.67 0 0.34 0 0 Z " fill="#FD6233" transform="translate(305,178)"/>
<path d="M0 0 C1.32 0 2.64 0 4 0 C4 1.32 4 2.64 4 4 C3.38125 4.103125 2.7625 4.20625 2.125 4.3125 C-0.36526484 4.87525373 -0.36526484 4.87525373 -2 8 C-1.125 1.125 -1.125 1.125 0 0 Z " fill="#FCD1C2" transform="translate(547,192)"/>
<path d="M0 0 C0.99 0.66 1.98 1.32 3 2 C1.5 4 1.5 4 -1 6 C-3.75871627 6.35800135 -6.20097524 6.18660165 -9 6 C-9 5.67 -9 5.34 -9 5 C-8.071875 4.9175 -7.14375 4.835 -6.1875 4.75 C-2.91490121 4.29742448 -2.91490121 4.29742448 -1.125 1.9375 C-0.75375 1.298125 -0.3825 0.65875 0 0 Z " fill="#FDE1D5" transform="translate(190,768)"/>
<path d="M0 0 C0.33 0.99 0.66 1.98 1 3 C-0.21484375 4.82421875 -0.21484375 4.82421875 -1.9375 6.6875 C-2.50339844 7.31011719 -3.06929687 7.93273437 -3.65234375 8.57421875 C-4.09707031 9.04472656 -4.54179688 9.51523437 -5 10 C-5.99 9.67 -6.98 9.34 -8 9 C-5.36 6.03 -2.72 3.06 0 0 Z " fill="#FB693E" transform="translate(778,491)"/>
<path d="M0 0 C0.66 0.33 1.32 0.66 2 1 C-0.64 3.64 -3.28 6.28 -6 9 C-6.33 8.34 -6.66 7.68 -7 7 C-2.25 1.125 -2.25 1.125 0 0 Z " fill="#FDDDD3" transform="translate(286,436)"/>
<path d="M0 0 C2.18994248 3.28491373 2.35277339 4.83095639 2.625 8.6875 C2.69976563 9.68136719 2.77453125 10.67523438 2.8515625 11.69921875 C2.92503906 12.83810547 2.92503906 12.83810547 3 14 C2.01 14 1.02 14 0 14 C0 9.38 0 4.76 0 0 Z " fill="#FC6B45" transform="translate(768,274)"/>
<path d="M0 0 C1.093125 0.226875 2.18625 0.45375 3.3125 0.6875 C1.3125 2.6875 1.3125 2.6875 -0.6328125 2.8828125 C-2.65104167 2.81770833 -4.66927083 2.75260417 -6.6875 2.6875 C-4.58035839 -0.41123767 -3.86755884 -0.32775922 0 0 Z " fill="#FD7B55" transform="translate(226.6875,164.3125)"/>
<path d="M0 0 C0.99 0 1.98 0 3 0 C3 1.65 3 3.3 3 5 C1.68 5 0.36 5 -1 5 C-0.67 3.35 -0.34 1.7 0 0 Z " fill="#FCD6C8" transform="translate(613,154)"/>
<path d="M0 0 C0.33 0.66 0.66 1.32 1 2 C-0.98 4.31 -2.96 6.62 -5 9 C-5.66 8.67 -6.32 8.34 -7 8 C-4.69 5.36 -2.38 2.72 0 0 Z " fill="#FDDCD2" transform="translate(680,466)"/>
<path d="M0 0 C0.66 0.33 1.32 0.66 2 1 C0.68 1.99 -0.64 2.98 -2 4 C-1.01 4.99 -0.02 5.98 1 7 C-0.65 6.67 -2.3 6.34 -4 6 C-3.67 4.35 -3.34 2.7 -3 1 C-2.01 0.67 -1.02 0.34 0 0 Z " fill="#FDCFBC" transform="translate(520,222)"/>
</svg>
